<svg width="985" height="324" viewBox="0 0 985 324" fill="none" xmlns="http://www.w3.org/2000/svg">
<rect x="26.2178" y="26.2179" width="801.523" height="270.421" fill="#F4F1EA"/>
<rect x="826.742" y="26.2179" width="130.341" height="270.421" fill="#F4F1EA"/>
<circle cx="26.2181" cy="26.967" r="26.2181" fill="#4B70B7"/>
<circle cx="26.2181" cy="297.388" r="26.2181" fill="#4B70B7"/>
<circle cx="827.742" cy="297.388" r="26.2181" fill="#4B70B7"/>
<circle cx="827.742" cy="26.2181" r="26.2181" fill="#4B70B7"/>
<circle cx="958.083" cy="26.2181" r="26.2181" fill="#4B70B7"/>
<circle cx="958.083" cy="296.638" r="26.2181" fill="#4B70B7"/>
<rect x="52.436" y="52.436" width="749.087" height="217.984" fill="#4B70B7"/>
<path d="M828.522 269.008C828.522 269.568 828.321 270.049 827.92 270.451C827.518 270.852 827.037 271.053 826.477 271.053C825.916 271.053 825.435 270.852 825.034 270.451C824.632 270.049 824.431 269.568 824.431 269.008C824.431 268.447 824.632 267.966 825.034 267.565C825.435 267.163 825.916 266.962 826.477 266.962C826.848 266.962 827.189 267.057 827.499 267.246C827.81 267.428 828.06 267.674 828.249 267.985C828.431 268.288 828.522 268.629 828.522 269.008ZM828.522 260.195C828.522 260.756 828.321 261.237 827.92 261.638C827.518 262.04 827.037 262.241 826.477 262.241C825.916 262.241 825.435 262.04 825.034 261.638C824.632 261.237 824.431 260.756 824.431 260.195C824.431 259.635 824.632 259.154 825.034 258.752C825.435 258.35 825.916 258.15 826.477 258.15C826.848 258.15 827.189 258.244 827.499 258.434C827.81 258.616 828.06 258.862 828.249 259.172C828.431 259.475 828.522 259.816 828.522 260.195ZM828.522 251.383C828.522 251.943 828.321 252.424 827.92 252.826C827.518 253.227 827.037 253.428 826.477 253.428C825.916 253.428 825.435 253.227 825.034 252.826C824.632 252.424 824.431 251.943 824.431 251.383C824.431 250.822 824.632 250.341 825.034 249.94C825.435 249.538 825.916 249.337 826.477 249.337C826.848 249.337 827.189 249.432 827.499 249.621C827.81 249.803 828.06 250.049 828.249 250.36C828.431 250.663 828.522 251.004 828.522 251.383ZM828.522 242.57C828.522 243.131 828.321 243.612 827.92 244.013C827.518 244.415 827.037 244.616 826.477 244.616C825.916 244.616 825.435 244.415 825.034 244.013C824.632 243.612 824.431 243.131 824.431 242.57C824.431 242.01 824.632 241.529 825.034 241.127C825.435 240.725 825.916 240.525 826.477 240.525C826.848 240.525 827.189 240.619 827.499 240.809C827.81 240.991 828.06 241.237 828.249 241.547C828.431 241.85 828.522 242.191 828.522 242.57ZM828.522 233.758C828.522 234.318 828.321 234.799 827.92 235.201C827.518 235.602 827.037 235.803 826.477 235.803C825.916 235.803 825.435 235.602 825.034 235.201C824.632 234.799 824.431 234.318 824.431 233.758C824.431 233.197 824.632 232.716 825.034 232.315C825.435 231.913 825.916 231.712 826.477 231.712C826.848 231.712 827.189 231.807 827.499 231.996C827.81 232.178 828.06 232.424 828.249 232.735C828.431 233.038 828.522 233.379 828.522 233.758ZM828.522 224.945C828.522 225.506 828.321 225.987 827.92 226.388C827.518 226.79 827.037 226.991 826.477 226.991C825.916 226.991 825.435 226.79 825.034 226.388C824.632 225.987 824.431 225.506 824.431 224.945C824.431 224.385 824.632 223.904 825.034 223.502C825.435 223.1 825.916 222.9 826.477 222.9C826.848 222.9 827.189 222.994 827.499 223.184C827.81 223.366 828.06 223.612 828.249 223.922C828.431 224.225 828.522 224.566 828.522 224.945ZM828.522 216.133C828.522 216.693 828.321 217.174 827.92 217.576C827.518 217.977 827.037 218.178 826.477 218.178C825.916 218.178 825.435 217.977 825.034 217.576C824.632 217.174 824.431 216.693 824.431 216.133C824.431 215.572 824.632 215.091 825.034 214.69C825.435 214.288 825.916 214.087 826.477 214.087C826.848 214.087 827.189 214.182 827.499 214.371C827.81 214.553 828.06 214.799 828.249 215.11C828.431 215.413 828.522 215.754 828.522 216.133ZM828.522 207.32C828.522 207.881 828.321 208.362 827.92 208.763C827.518 209.165 827.037 209.366 826.477 209.366C825.916 209.366 825.435 209.165 825.034 208.763C824.632 208.362 824.431 207.881 824.431 207.32C824.431 206.76 824.632 206.279 825.034 205.877C825.435 205.475 825.916 205.275 826.477 205.275C826.848 205.275 827.189 205.369 827.499 205.559C827.81 205.741 828.06 205.987 828.249 206.297C828.431 206.6 828.522 206.941 828.522 207.32ZM828.522 198.508C828.522 199.068 828.321 199.549 827.92 199.951C827.518 200.352 827.037 200.553 826.477 200.553C825.916 200.553 825.435 200.352 825.034 199.951C824.632 199.549 824.431 199.068 824.431 198.508C824.431 197.947 824.632 197.466 825.034 197.065C825.435 196.663 825.916 196.462 826.477 196.462C826.848 196.462 827.189 196.557 827.499 196.746C827.81 196.928 828.06 197.174 828.249 197.485C828.431 197.788 828.522 198.129 828.522 198.508ZM828.522 189.695C828.522 190.256 828.321 190.737 827.92 191.138C827.518 191.54 827.037 191.741 826.477 191.741C825.916 191.741 825.435 191.54 825.034 191.138C824.632 190.737 824.431 190.256 824.431 189.695C824.431 189.135 824.632 188.654 825.034 188.252C825.435 187.85 825.916 187.65 826.477 187.65C826.848 187.65 827.189 187.744 827.499 187.934C827.81 188.116 828.06 188.362 828.249 188.672C828.431 188.975 828.522 189.316 828.522 189.695ZM828.522 180.883C828.522 181.443 828.321 181.924 827.92 182.326C827.518 182.727 827.037 182.928 826.477 182.928C825.916 182.928 825.435 182.727 825.034 182.326C824.632 181.924 824.431 181.443 824.431 180.883C824.431 180.322 824.632 179.841 825.034 179.44C825.435 179.038 825.916 178.837 826.477 178.837C826.848 178.837 827.189 178.932 827.499 179.121C827.81 179.303 828.06 179.549 828.249 179.86C828.431 180.163 828.522 180.504 828.522 180.883ZM828.522 172.07C828.522 172.631 828.321 173.112 827.92 173.513C827.518 173.915 827.037 174.116 826.477 174.116C825.916 174.116 825.435 173.915 825.034 173.513C824.632 173.112 824.431 172.631 824.431 172.07C824.431 171.51 824.632 171.029 825.034 170.627C825.435 170.225 825.916 170.025 826.477 170.025C826.848 170.025 827.189 170.119 827.499 170.309C827.81 170.491 828.06 170.737 828.249 171.047C828.431 171.35 828.522 171.691 828.522 172.07ZM828.522 163.258C828.522 163.818 828.321 164.299 827.92 164.701C827.518 165.102 827.037 165.303 826.477 165.303C825.916 165.303 825.435 165.102 825.034 164.701C824.632 164.299 824.431 163.818 824.431 163.258C824.431 162.697 824.632 162.216 825.034 161.815C825.435 161.413 825.916 161.212 826.477 161.212C826.848 161.212 827.189 161.307 827.499 161.496C827.81 161.678 828.06 161.924 828.249 162.235C828.431 162.538 828.522 162.879 828.522 163.258ZM828.522 154.445C828.522 155.006 828.321 155.487 827.92 155.888C827.518 156.29 827.037 156.491 826.477 156.491C825.916 156.491 825.435 156.29 825.034 155.888C824.632 155.487 824.431 155.006 824.431 154.445C824.431 153.885 824.632 153.404 825.034 153.002C825.435 152.6 825.916 152.4 826.477 152.4C826.848 152.4 827.189 152.494 827.499 152.684C827.81 152.866 828.06 153.112 828.249 153.422C828.431 153.725 828.522 154.066 828.522 154.445ZM828.522 145.633C828.522 146.193 828.321 146.674 827.92 147.076C827.518 147.477 827.037 147.678 826.477 147.678C825.916 147.678 825.435 147.477 825.034 147.076C824.632 146.674 824.431 146.193 824.431 145.633C824.431 145.072 824.632 144.591 825.034 144.19C825.435 143.788 825.916 143.587 826.477 143.587C826.848 143.587 827.189 143.682 827.499 143.871C827.81 144.053 828.06 144.299 828.249 144.61C828.431 144.913 828.522 145.254 828.522 145.633ZM828.522 136.82C828.522 137.381 828.321 137.862 827.92 138.263C827.518 138.665 827.037 138.866 826.477 138.866C825.916 138.866 825.435 138.665 825.034 138.263C824.632 137.862 824.431 137.381 824.431 136.82C824.431 136.26 824.632 135.779 825.034 135.377C825.435 134.975 825.916 134.775 826.477 134.775C826.848 134.775 827.189 134.869 827.499 135.059C827.81 135.241 828.06 135.487 828.249 135.797C828.431 136.1 828.522 136.441 828.522 136.82ZM828.522 128.008C828.522 128.568 828.321 129.049 827.92 129.451C827.518 129.852 827.037 130.053 826.477 130.053C825.916 130.053 825.435 129.852 825.034 129.451C824.632 129.049 824.431 128.568 824.431 128.008C824.431 127.447 824.632 126.966 825.034 126.565C825.435 126.163 825.916 125.962 826.477 125.962C826.848 125.962 827.189 126.057 827.499 126.246C827.81 126.428 828.06 126.674 828.249 126.985C828.431 127.288 828.522 127.629 828.522 128.008ZM828.522 119.195C828.522 119.756 828.321 120.237 827.92 120.638C827.518 121.04 827.037 121.241 826.477 121.241C825.916 121.241 825.435 121.04 825.034 120.638C824.632 120.237 824.431 119.756 824.431 119.195C824.431 118.635 824.632 118.154 825.034 117.752C825.435 117.35 825.916 117.15 826.477 117.15C826.848 117.15 827.189 117.244 827.499 117.434C827.81 117.616 828.06 117.862 828.249 118.172C828.431 118.475 828.522 118.816 828.522 119.195ZM828.522 110.383C828.522 110.943 828.321 111.424 827.92 111.826C827.518 112.227 827.037 112.428 826.477 112.428C825.916 112.428 825.435 112.227 825.034 111.826C824.632 111.424 824.431 110.943 824.431 110.383C824.431 109.822 824.632 109.341 825.034 108.94C825.435 108.538 825.916 108.337 826.477 108.337C826.848 108.337 827.189 108.432 827.499 108.621C827.81 108.803 828.06 109.049 828.249 109.36C828.431 109.663 828.522 110.004 828.522 110.383ZM828.522 101.57C828.522 102.131 828.321 102.612 827.92 103.013C827.518 103.415 827.037 103.616 826.477 103.616C825.916 103.616 825.435 103.415 825.034 103.013C824.632 102.612 824.431 102.131 824.431 101.57C824.431 101.01 824.632 100.529 825.034 100.127C825.435 99.7255 825.916 99.5247 826.477 99.5247C826.848 99.5247 827.189 99.6194 827.499 99.8088C827.81 99.9906 828.06 100.237 828.249 100.547C828.431 100.85 828.522 101.191 828.522 101.57ZM828.522 92.7577C828.522 93.3183 828.321 93.7994 827.92 94.2009C827.518 94.6024 827.037 94.8031 826.477 94.8031C825.916 94.8031 825.435 94.6024 825.034 94.2009C824.632 93.7994 824.431 93.3183 824.431 92.7577C824.431 92.1971 824.632 91.716 825.034 91.3145C825.435 90.913 825.916 90.7122 826.477 90.7122C826.848 90.7122 827.189 90.8069 827.499 90.9963C827.81 91.1781 828.06 91.4244 828.249 91.735C828.431 92.038 828.522 92.3789 828.522 92.7577ZM828.522 83.9452C828.522 84.5058 828.321 84.9869 827.92 85.3884C827.518 85.7899 827.037 85.9906 826.477 85.9906C825.916 85.9906 825.435 85.7899 825.034 85.3884C824.632 84.9869 824.431 84.5058 824.431 83.9452C824.431 83.3846 824.632 82.9035 825.034 82.502C825.435 82.1005 825.916 81.8997 826.477 81.8997C826.848 81.8997 827.189 81.9944 827.499 82.1838C827.81 82.3656 828.06 82.6119 828.249 82.9225C828.431 83.2255 828.522 83.5664 828.522 83.9452ZM828.522 75.1327C828.522 75.6933 828.321 76.1744 827.92 76.5759C827.518 76.9774 827.037 77.1781 826.477 77.1781C825.916 77.1781 825.435 76.9774 825.034 76.5759C824.632 76.1744 824.431 75.6933 824.431 75.1327C824.431 74.5721 824.632 74.091 825.034 73.6895C825.435 73.288 825.916 73.0872 826.477 73.0872C826.848 73.0872 827.189 73.1819 827.499 73.3713C827.81 73.5531 828.06 73.7994 828.249 74.11C828.431 74.413 828.522 74.7539 828.522 75.1327ZM828.522 66.3202C828.522 66.8808 828.321 67.3619 827.92 67.7634C827.518 68.1649 827.037 68.3656 826.477 68.3656C825.916 68.3656 825.435 68.1649 825.034 67.7634C824.632 67.3619 824.431 66.8808 824.431 66.3202C824.431 65.7596 824.632 65.2785 825.034 64.877C825.435 64.4755 825.916 64.2747 826.477 64.2747C826.848 64.2747 827.189 64.3694 827.499 64.5588C827.81 64.7406 828.06 64.9869 828.249 65.2975C828.431 65.6005 828.522 65.9414 828.522 66.3202ZM828.522 57.5077C828.522 58.0683 828.321 58.5494 827.92 58.9509C827.518 59.3524 827.037 59.5531 826.477 59.5531C825.916 59.5531 825.435 59.3524 825.034 58.9509C824.632 58.5494 824.431 58.0683 824.431 57.5077C824.431 56.9471 824.632 56.466 825.034 56.0645C825.435 55.663 825.916 55.4622 826.477 55.4622C826.848 55.4622 827.189 55.5569 827.499 55.7463C827.81 55.9281 828.06 56.1744 828.249 56.485C828.431 56.788 828.522 57.1289 828.522 57.5077Z" fill="#4B70B7"/>
</svg>
