<svg width="620" height="218" viewBox="0 0 620 218" fill="none" xmlns="http://www.w3.org/2000/svg">
<path d="M166.179 21.448C165.875 21.656 165.067 21.896 163.755 22.168L162.747 21.976C162.619 21.928 162.387 21.808 162.051 21.616C161.731 21.424 161.395 21.144 161.043 20.776C160.707 20.408 160.403 19.944 160.131 19.384C159.875 18.824 159.747 18.16 159.747 17.392C159.747 16.768 159.923 16.216 160.275 15.736C160.627 15.24 161.163 14.712 161.883 14.152C162.267 14.056 162.643 14.008 163.011 14.008C164.083 14.008 165.067 14.368 165.963 15.088C166.731 16.144 167.115 17.304 167.115 18.568C167.115 19.56 166.803 20.52 166.179 21.448ZM163.995 15.592C163.755 15.48 163.499 15.424 163.227 15.424C163.035 15.424 162.827 15.472 162.603 15.568C162.395 15.664 162.195 15.808 162.003 16C161.827 16.192 161.683 16.44 161.571 16.744C161.459 17.032 161.403 17.376 161.403 17.776C161.403 18.096 161.443 18.416 161.523 18.736C161.619 19.056 161.755 19.352 161.931 19.624C162.123 19.896 162.363 20.12 162.651 20.296C162.939 20.456 163.283 20.536 163.683 20.536C164.051 20.536 164.467 20.44 164.931 20.248C165.331 19.752 165.531 19.16 165.531 18.472C165.531 16.952 165.019 15.992 163.995 15.592ZM235.769 21.28C235.769 21.536 235.649 21.736 235.409 21.88C235.185 22.024 234.977 22.096 234.785 22.096C234.449 22.096 234.185 22.056 233.993 21.976C233.801 21.896 233.649 21.8 233.537 21.688C233.441 21.56 233.377 21.432 233.345 21.304C233.313 21.16 233.297 21.024 233.297 20.896C233.297 20.608 233.401 20.312 233.609 20.008C233.817 19.704 234.089 19.552 234.425 19.552C234.537 19.552 234.665 19.568 234.809 19.6C234.969 19.616 235.121 19.68 235.265 19.792C235.409 19.904 235.529 20.08 235.625 20.32C235.721 20.544 235.769 20.864 235.769 21.28ZM279.56 21.448C279.256 21.656 278.448 21.896 277.136 22.168L276.128 21.976C276 21.928 275.768 21.808 275.432 21.616C275.112 21.424 274.776 21.144 274.424 20.776C274.088 20.408 273.784 19.944 273.512 19.384C273.256 18.824 273.128 18.16 273.128 17.392C273.128 16.768 273.304 16.216 273.656 15.736C274.008 15.24 274.544 14.712 275.264 14.152C275.648 14.056 276.024 14.008 276.392 14.008C277.464 14.008 278.448 14.368 279.344 15.088C280.112 16.144 280.496 17.304 280.496 18.568C280.496 19.56 280.184 20.52 279.56 21.448ZM277.376 15.592C277.136 15.48 276.88 15.424 276.608 15.424C276.416 15.424 276.208 15.472 275.984 15.568C275.776 15.664 275.576 15.808 275.384 16C275.208 16.192 275.064 16.44 274.952 16.744C274.84 17.032 274.784 17.376 274.784 17.776C274.784 18.096 274.824 18.416 274.904 18.736C275 19.056 275.136 19.352 275.312 19.624C275.504 19.896 275.744 20.12 276.032 20.296C276.32 20.456 276.664 20.536 277.064 20.536C277.432 20.536 277.848 20.44 278.312 20.248C278.712 19.752 278.912 19.16 278.912 18.472C278.912 16.952 278.4 15.992 277.376 15.592ZM320.353 21.28C320.353 21.536 320.233 21.736 319.993 21.88C319.769 22.024 319.561 22.096 319.369 22.096C319.033 22.096 318.769 22.056 318.577 21.976C318.385 21.896 318.233 21.8 318.121 21.688C318.025 21.56 317.961 21.432 317.929 21.304C317.897 21.16 317.881 21.024 317.881 20.896C317.881 20.608 317.985 20.312 318.193 20.008C318.401 19.704 318.673 19.552 319.009 19.552C319.121 19.552 319.249 19.568 319.393 19.6C319.553 19.616 319.705 19.68 319.849 19.792C319.993 19.904 320.113 20.08 320.209 20.32C320.305 20.544 320.353 20.864 320.353 21.28ZM364.144 21.448C363.84 21.656 363.032 21.896 361.72 22.168L360.712 21.976C360.584 21.928 360.352 21.808 360.016 21.616C359.696 21.424 359.36 21.144 359.008 20.776C358.672 20.408 358.368 19.944 358.096 19.384C357.84 18.824 357.712 18.16 357.712 17.392C357.712 16.768 357.888 16.216 358.24 15.736C358.592 15.24 359.128 14.712 359.848 14.152C360.232 14.056 360.608 14.008 360.976 14.008C362.048 14.008 363.032 14.368 363.928 15.088C364.696 16.144 365.08 17.304 365.08 18.568C365.08 19.56 364.768 20.52 364.144 21.448ZM361.96 15.592C361.72 15.48 361.464 15.424 361.192 15.424C361 15.424 360.792 15.472 360.568 15.568C360.36 15.664 360.16 15.808 359.968 16C359.792 16.192 359.648 16.44 359.536 16.744C359.424 17.032 359.368 17.376 359.368 17.776C359.368 18.096 359.408 18.416 359.488 18.736C359.584 19.056 359.72 19.352 359.896 19.624C360.088 19.896 360.328 20.12 360.616 20.296C360.904 20.456 361.248 20.536 361.648 20.536C362.016 20.536 362.432 20.44 362.896 20.248C363.296 19.752 363.496 19.16 363.496 18.472C363.496 16.952 362.984 15.992 361.96 15.592ZM390.539 21.28C390.539 21.536 390.419 21.736 390.179 21.88C389.955 22.024 389.747 22.096 389.555 22.096C389.219 22.096 388.955 22.056 388.763 21.976C388.571 21.896 388.419 21.8 388.307 21.688C388.211 21.56 388.147 21.432 388.115 21.304C388.083 21.16 388.067 21.024 388.067 20.896C388.067 20.608 388.171 20.312 388.379 20.008C388.587 19.704 388.859 19.552 389.195 19.552C389.307 19.552 389.435 19.568 389.579 19.6C389.739 19.616 389.891 19.68 390.035 19.792C390.179 19.904 390.299 20.08 390.395 20.32C390.491 20.544 390.539 20.864 390.539 21.28ZM434.33 21.448C434.026 21.656 433.218 21.896 431.906 22.168L430.898 21.976C430.77 21.928 430.538 21.808 430.202 21.616C429.882 21.424 429.546 21.144 429.194 20.776C428.858 20.408 428.554 19.944 428.282 19.384C428.026 18.824 427.898 18.16 427.898 17.392C427.898 16.768 428.074 16.216 428.426 15.736C428.778 15.24 429.314 14.712 430.034 14.152C430.418 14.056 430.794 14.008 431.162 14.008C432.234 14.008 433.218 14.368 434.114 15.088C434.882 16.144 435.266 17.304 435.266 18.568C435.266 19.56 434.954 20.52 434.33 21.448ZM432.146 15.592C431.906 15.48 431.65 15.424 431.378 15.424C431.186 15.424 430.978 15.472 430.754 15.568C430.546 15.664 430.346 15.808 430.154 16C429.978 16.192 429.834 16.44 429.722 16.744C429.61 17.032 429.554 17.376 429.554 17.776C429.554 18.096 429.594 18.416 429.674 18.736C429.77 19.056 429.906 19.352 430.082 19.624C430.274 19.896 430.514 20.12 430.802 20.296C431.09 20.456 431.434 20.536 431.834 20.536C432.202 20.536 432.618 20.44 433.082 20.248C433.482 19.752 433.682 19.16 433.682 18.472C433.682 16.952 433.17 15.992 432.146 15.592ZM475.123 21.28C475.123 21.536 475.003 21.736 474.763 21.88C474.539 22.024 474.331 22.096 474.139 22.096C473.803 22.096 473.539 22.056 473.347 21.976C473.155 21.896 473.003 21.8 472.891 21.688C472.795 21.56 472.731 21.432 472.699 21.304C472.667 21.16 472.651 21.024 472.651 20.896C472.651 20.608 472.755 20.312 472.963 20.008C473.171 19.704 473.443 19.552 473.779 19.552C473.891 19.552 474.019 19.568 474.163 19.6C474.323 19.616 474.475 19.68 474.619 19.792C474.763 19.904 474.883 20.08 474.979 20.32C475.075 20.544 475.123 20.864 475.123 21.28ZM518.914 21.448C518.61 21.656 517.802 21.896 516.49 22.168L515.482 21.976C515.354 21.928 515.122 21.808 514.786 21.616C514.466 21.424 514.13 21.144 513.778 20.776C513.442 20.408 513.138 19.944 512.866 19.384C512.61 18.824 512.482 18.16 512.482 17.392C512.482 16.768 512.658 16.216 513.01 15.736C513.362 15.24 513.898 14.712 514.618 14.152C515.002 14.056 515.378 14.008 515.746 14.008C516.818 14.008 517.802 14.368 518.698 15.088C519.466 16.144 519.85 17.304 519.85 18.568C519.85 19.56 519.538 20.52 518.914 21.448ZM516.73 15.592C516.49 15.48 516.234 15.424 515.962 15.424C515.77 15.424 515.562 15.472 515.338 15.568C515.13 15.664 514.93 15.808 514.738 16C514.562 16.192 514.418 16.44 514.306 16.744C514.194 17.032 514.138 17.376 514.138 17.776C514.138 18.096 514.178 18.416 514.258 18.736C514.354 19.056 514.49 19.352 514.666 19.624C514.858 19.896 515.098 20.12 515.386 20.296C515.674 20.456 516.018 20.536 516.418 20.536C516.786 20.536 517.202 20.44 517.666 20.248C518.066 19.752 518.266 19.16 518.266 18.472C518.266 16.952 517.754 15.992 516.73 15.592ZM559.707 21.28C559.707 21.536 559.587 21.736 559.347 21.88C559.123 22.024 558.915 22.096 558.723 22.096C558.387 22.096 558.123 22.056 557.931 21.976C557.739 21.896 557.587 21.8 557.475 21.688C557.379 21.56 557.315 21.432 557.283 21.304C557.251 21.16 557.235 21.024 557.235 20.896C557.235 20.608 557.339 20.312 557.547 20.008C557.755 19.704 558.027 19.552 558.363 19.552C558.475 19.552 558.603 19.568 558.747 19.6C558.907 19.616 559.059 19.68 559.203 19.792C559.347 19.904 559.467 20.08 559.563 20.32C559.659 20.544 559.707 20.864 559.707 21.28ZM603.498 21.448C603.194 21.656 602.386 21.896 601.074 22.168L600.066 21.976C599.938 21.928 599.706 21.808 599.37 21.616C599.05 21.424 598.714 21.144 598.362 20.776C598.026 20.408 597.722 19.944 597.45 19.384C597.194 18.824 597.066 18.16 597.066 17.392C597.066 16.768 597.242 16.216 597.594 15.736C597.946 15.24 598.482 14.712 599.202 14.152C599.586 14.056 599.962 14.008 600.33 14.008C601.402 14.008 602.386 14.368 603.282 15.088C604.05 16.144 604.434 17.304 604.434 18.568C604.434 19.56 604.122 20.52 603.498 21.448ZM601.314 15.592C601.074 15.48 600.818 15.424 600.546 15.424C600.354 15.424 600.146 15.472 599.922 15.568C599.714 15.664 599.514 15.808 599.322 16C599.146 16.192 599.002 16.44 598.89 16.744C598.778 17.032 598.722 17.376 598.722 17.776C598.722 18.096 598.762 18.416 598.842 18.736C598.938 19.056 599.074 19.352 599.25 19.624C599.442 19.896 599.682 20.12 599.97 20.296C600.258 20.456 600.602 20.536 601.002 20.536C601.37 20.536 601.786 20.44 602.25 20.248C602.65 19.752 602.85 19.16 602.85 18.472C602.85 16.952 602.338 15.992 601.314 15.592ZM137.383 52.448C137.079 52.656 136.271 52.896 134.959 53.168L133.951 52.976C133.823 52.928 133.591 52.808 133.255 52.616C132.935 52.424 132.599 52.144 132.247 51.776C131.911 51.408 131.607 50.944 131.335 50.384C131.079 49.824 130.951 49.16 130.951 48.392C130.951 47.768 131.127 47.216 131.479 46.736C131.831 46.24 132.367 45.712 133.087 45.152C133.471 45.056 133.847 45.008 134.215 45.008C135.287 45.008 136.271 45.368 137.167 46.088C137.935 47.144 138.319 48.304 138.319 49.568C138.319 50.56 138.007 51.52 137.383 52.448ZM135.199 46.592C134.959 46.48 134.703 46.424 134.431 46.424C134.239 46.424 134.031 46.472 133.807 46.568C133.599 46.664 133.399 46.808 133.207 47C133.031 47.192 132.887 47.44 132.775 47.744C132.663 48.032 132.607 48.376 132.607 48.776C132.607 49.096 132.647 49.416 132.727 49.736C132.823 50.056 132.959 50.352 133.135 50.624C133.327 50.896 133.567 51.12 133.855 51.296C134.143 51.456 134.487 51.536 134.887 51.536C135.255 51.536 135.671 51.44 136.135 51.248C136.535 50.752 136.735 50.16 136.735 49.472C136.735 47.952 136.223 46.992 135.199 46.592ZM91.7407 83.28C91.7407 83.536 91.6207 83.736 91.3807 83.88C91.1567 84.024 90.9487 84.096 90.7567 84.096C90.4207 84.096 90.1567 84.056 89.9647 83.976C89.7727 83.896 89.6207 83.8 89.5087 83.688C89.4127 83.56 89.3487 83.432 89.3167 83.304C89.2847 83.16 89.2687 83.024 89.2687 82.896C89.2687 82.608 89.3727 82.312 89.5807 82.008C89.7887 81.704 90.0607 81.552 90.3967 81.552C90.5087 81.552 90.6367 81.568 90.7807 81.6C90.9407 81.616 91.0927 81.68 91.2367 81.792C91.3807 81.904 91.5007 82.08 91.5967 82.32C91.6927 82.544 91.7407 82.864 91.7407 83.28ZM77.3426 114.28C77.3426 114.536 77.2226 114.736 76.9826 114.88C76.7586 115.024 76.5506 115.096 76.3586 115.096C76.0226 115.096 75.7586 115.056 75.5666 114.976C75.3746 114.896 75.2226 114.8 75.1106 114.688C75.0146 114.56 74.9506 114.432 74.9186 114.304C74.8866 114.16 74.8706 114.024 74.8706 113.896C74.8706 113.608 74.9746 113.312 75.1826 113.008C75.3906 112.704 75.6626 112.552 75.9986 112.552C76.1106 112.552 76.2386 112.568 76.3826 112.6C76.5426 112.616 76.6946 112.68 76.8386 112.792C76.9826 112.904 77.1026 113.08 77.1986 113.32C77.2946 113.544 77.3426 113.864 77.3426 114.28ZM51.5224 149.936C51.3464 149.984 51.1224 150.008 50.8504 150.008C50.7544 150.008 50.5864 150 50.3464 149.984C50.1224 149.968 49.8824 149.952 49.6264 149.936C49.3704 149.92 49.1304 149.904 48.9064 149.888C48.6824 149.872 48.5304 149.864 48.4504 149.864C48.4504 149.88 48.2744 149.872 47.9224 149.84C47.5864 149.824 47.0664 149.816 46.3624 149.816C45.8504 149.816 45.5464 149.864 45.4504 149.96L43.0984 150.104C42.5224 150.056 42.2344 149.808 42.2344 149.36C42.2344 149.056 42.4024 148.768 42.7384 148.496C42.9464 148.448 43.7624 148.4 45.1864 148.352C45.2664 148.352 45.3544 148.352 45.4504 148.352C45.5624 148.368 45.6824 148.376 45.8104 148.376C46.4504 148.376 47.3144 148.352 48.4024 148.304L51.4024 148.496C51.6904 148.64 51.8344 148.88 51.8344 149.216C51.8344 149.488 51.7304 149.728 51.5224 149.936ZM60.7219 138.656C60.7219 138.768 60.7299 139.048 60.7459 139.496C60.7619 139.928 60.7699 140.536 60.7699 141.32C60.7699 141.832 60.7379 142.144 60.6739 142.256C60.7059 142.4 60.7219 142.544 60.7219 142.688C60.7219 142.832 60.7219 142.992 60.7219 143.168C60.7219 143.52 60.6979 143.896 60.6499 144.296C60.6179 144.68 60.5939 145.056 60.5779 145.424C60.5939 145.6 60.6019 145.768 60.6019 145.928C60.6019 146.088 60.6019 146.248 60.6019 146.408C60.6019 146.6 60.6019 146.808 60.6019 147.032C60.6179 147.272 60.6019 147.488 60.5539 147.68C60.5219 147.888 60.4419 148.056 60.3139 148.184C60.2019 148.312 60.0259 148.376 59.7859 148.376C59.5459 148.376 59.3619 148.296 59.2339 148.136C59.1219 147.992 59.0419 147.8 58.9939 147.56C58.9459 147.32 58.9219 147.048 58.9219 146.744C58.9219 146.456 58.9219 146.168 58.9219 145.88C58.9219 145.352 58.9539 144.736 59.0179 144.032C59.0979 143.328 59.1379 142.648 59.1379 141.992C59.1379 141.368 59.0899 140.792 58.9939 140.264C59.0099 140.216 59.0259 140.048 59.0419 139.76C59.0579 139.472 59.0739 139.16 59.0899 138.824C59.1219 138.472 59.1459 138.144 59.1619 137.84C59.1779 137.536 59.2019 137.344 59.2339 137.264C59.1699 137.056 59.1379 136.512 59.1379 135.632C59.1379 135.376 59.1299 135.056 59.1139 134.672C59.1139 134.272 59.1219 133.864 59.1379 133.448C59.1539 133.016 59.1779 132.6 59.2099 132.2C59.2579 131.784 59.3219 131.424 59.4019 131.12C59.4659 130.88 59.6499 130.76 59.9539 130.76C60.3219 130.76 60.5539 130.856 60.6499 131.048C60.7459 131.24 60.7939 131.584 60.7939 132.08C60.7939 132.304 60.7859 132.552 60.7699 132.824C60.7539 133.096 60.7299 133.4 60.6979 133.736C60.6979 133.8 60.7059 134.184 60.7219 134.888C60.7379 135.592 60.7459 136.448 60.7459 137.456C60.7459 137.68 60.7379 137.896 60.7219 138.104C60.7219 138.296 60.7219 138.48 60.7219 138.656ZM74.3466 138.656C74.3466 138.768 74.3546 139.048 74.3706 139.496C74.3866 139.928 74.3946 140.536 74.3946 141.32C74.3946 141.832 74.3626 142.144 74.2986 142.256C74.3306 142.4 74.3466 142.544 74.3466 142.688C74.3466 142.832 74.3466 142.992 74.3466 143.168C74.3466 143.52 74.3226 143.896 74.2746 144.296C74.2426 144.68 74.2186 145.056 74.2026 145.424C74.2186 145.6 74.2266 145.768 74.2266 145.928C74.2266 146.088 74.2266 146.248 74.2266 146.408C74.2266 146.6 74.2266 146.808 74.2266 147.032C74.2426 147.272 74.2266 147.488 74.1786 147.68C74.1466 147.888 74.0666 148.056 73.9386 148.184C73.8266 148.312 73.6506 148.376 73.4106 148.376C73.1706 148.376 72.9866 148.296 72.8586 148.136C72.7466 147.992 72.6666 147.8 72.6186 147.56C72.5706 147.32 72.5466 147.048 72.5466 146.744C72.5466 146.456 72.5466 146.168 72.5466 145.88C72.5466 145.352 72.5786 144.736 72.6426 144.032C72.7226 143.328 72.7626 142.648 72.7626 141.992C72.7626 141.368 72.7146 140.792 72.6186 140.264C72.6346 140.216 72.6506 140.048 72.6666 139.76C72.6826 139.472 72.6986 139.16 72.7146 138.824C72.7466 138.472 72.7706 138.144 72.7866 137.84C72.8026 137.536 72.8266 137.344 72.8586 137.264C72.7946 137.056 72.7626 136.512 72.7626 135.632C72.7626 135.376 72.7546 135.056 72.7386 134.672C72.7386 134.272 72.7466 133.864 72.7626 133.448C72.7786 133.016 72.8026 132.6 72.8346 132.2C72.8826 131.784 72.9466 131.424 73.0266 131.12C73.0906 130.88 73.2746 130.76 73.5786 130.76C73.9466 130.76 74.1786 130.856 74.2746 131.048C74.3706 131.24 74.4186 131.584 74.4186 132.08C74.4186 132.304 74.4106 132.552 74.3946 132.824C74.3786 133.096 74.3546 133.4 74.3226 133.736C74.3226 133.8 74.3306 134.184 74.3466 134.888C74.3626 135.592 74.3706 136.448 74.3706 137.456C74.3706 137.68 74.3626 137.896 74.3466 138.104C74.3466 138.296 74.3466 138.48 74.3466 138.656ZM90.7792 149.936C90.6032 149.984 90.3792 150.008 90.1072 150.008C90.0112 150.008 89.8432 150 89.6032 149.984C89.3792 149.968 89.1392 149.952 88.8832 149.936C88.6272 149.92 88.3872 149.904 88.1632 149.888C87.9392 149.872 87.7872 149.864 87.7072 149.864C87.7072 149.88 87.5312 149.872 87.1792 149.84C86.8432 149.824 86.3232 149.816 85.6192 149.816C85.1072 149.816 84.8032 149.864 84.7072 149.96L82.3552 150.104C81.7792 150.056 81.4912 149.808 81.4912 149.36C81.4912 149.056 81.6592 148.768 81.9952 148.496C82.2032 148.448 83.0192 148.4 84.4432 148.352C84.5232 148.352 84.6112 148.352 84.7072 148.352C84.8192 148.368 84.9392 148.376 85.0672 148.376C85.7072 148.376 86.5712 148.352 87.6592 148.304L90.6592 148.496C90.9472 148.64 91.0912 148.88 91.0912 149.216C91.0912 149.488 90.9872 149.728 90.7792 149.936ZM102.787 149.936C102.611 149.984 102.387 150.008 102.115 150.008C102.019 150.008 101.851 150 101.611 149.984C101.387 149.968 101.147 149.952 100.891 149.936C100.635 149.92 100.395 149.904 100.171 149.888C99.9467 149.872 99.7947 149.864 99.7147 149.864C99.7147 149.88 99.5387 149.872 99.1867 149.84C98.8507 149.824 98.3307 149.816 97.6267 149.816C97.1147 149.816 96.8107 149.864 96.7147 149.96L94.3627 150.104C93.7867 150.056 93.4987 149.808 93.4987 149.36C93.4987 149.056 93.6667 148.768 94.0027 148.496C94.2107 148.448 95.0267 148.4 96.4507 148.352C96.5307 148.352 96.6187 148.352 96.7147 148.352C96.8267 148.368 96.9467 148.376 97.0747 148.376C97.7147 148.376 98.5787 148.352 99.6667 148.304L102.667 148.496C102.955 148.64 103.099 148.88 103.099 149.216C103.099 149.488 102.995 149.728 102.787 149.936ZM129.192 149.936C129.016 149.984 128.792 150.008 128.52 150.008C128.424 150.008 128.256 150 128.016 149.984C127.792 149.968 127.552 149.952 127.296 149.936C127.04 149.92 126.8 149.904 126.576 149.888C126.352 149.872 126.2 149.864 126.12 149.864C126.12 149.88 125.944 149.872 125.592 149.84C125.256 149.824 124.736 149.816 124.032 149.816C123.52 149.816 123.216 149.864 123.12 149.96L120.768 150.104C120.192 150.056 119.904 149.808 119.904 149.36C119.904 149.056 120.072 148.768 120.408 148.496C120.616 148.448 121.432 148.4 122.856 148.352C122.936 148.352 123.024 148.352 123.12 148.352C123.232 148.368 123.352 148.376 123.48 148.376C124.12 148.376 124.984 148.352 126.072 148.304L129.072 148.496C129.36 148.64 129.504 148.88 129.504 149.216C129.504 149.488 129.4 149.728 129.192 149.936ZM141.2 149.936C141.024 149.984 140.8 150.008 140.528 150.008C140.432 150.008 140.264 150 140.024 149.984C139.8 149.968 139.56 149.952 139.304 149.936C139.048 149.92 138.808 149.904 138.584 149.888C138.36 149.872 138.208 149.864 138.128 149.864C138.128 149.88 137.952 149.872 137.6 149.84C137.264 149.824 136.744 149.816 136.04 149.816C135.528 149.816 135.224 149.864 135.128 149.96L132.776 150.104C132.2 150.056 131.912 149.808 131.912 149.36C131.912 149.056 132.08 148.768 132.416 148.496C132.624 148.448 133.44 148.4 134.864 148.352C134.944 148.352 135.032 148.352 135.128 148.352C135.24 148.368 135.36 148.376 135.488 148.376C136.128 148.376 136.992 148.352 138.08 148.304L141.08 148.496C141.368 148.64 141.512 148.88 141.512 149.216C141.512 149.488 141.408 149.728 141.2 149.936ZM153.207 149.936C153.031 149.984 152.807 150.008 152.535 150.008C152.439 150.008 152.271 150 152.031 149.984C151.807 149.968 151.567 149.952 151.311 149.936C151.055 149.92 150.815 149.904 150.591 149.888C150.367 149.872 150.215 149.864 150.135 149.864C150.135 149.88 149.959 149.872 149.607 149.84C149.271 149.824 148.751 149.816 148.047 149.816C147.535 149.816 147.231 149.864 147.135 149.96L144.783 150.104C144.207 150.056 143.919 149.808 143.919 149.36C143.919 149.056 144.087 148.768 144.423 148.496C144.631 148.448 145.447 148.4 146.871 148.352C146.951 148.352 147.039 148.352 147.135 148.352C147.247 148.368 147.367 148.376 147.495 148.376C148.135 148.376 148.999 148.352 150.087 148.304L153.087 148.496C153.375 148.64 153.519 148.88 153.519 149.216C153.519 149.488 153.415 149.728 153.207 149.936ZM165.215 149.936C165.039 149.984 164.815 150.008 164.543 150.008C164.447 150.008 164.279 150 164.039 149.984C163.815 149.968 163.575 149.952 163.319 149.936C163.063 149.92 162.823 149.904 162.599 149.888C162.375 149.872 162.223 149.864 162.143 149.864C162.143 149.88 161.967 149.872 161.615 149.84C161.279 149.824 160.759 149.816 160.055 149.816C159.543 149.816 159.239 149.864 159.143 149.96L156.791 150.104C156.215 150.056 155.927 149.808 155.927 149.36C155.927 149.056 156.095 148.768 156.431 148.496C156.639 148.448 157.455 148.4 158.879 148.352C158.959 148.352 159.047 148.352 159.143 148.352C159.255 148.368 159.375 148.376 159.503 148.376C160.143 148.376 161.007 148.352 162.095 148.304L165.095 148.496C165.383 148.64 165.527 148.88 165.527 149.216C165.527 149.488 165.423 149.728 165.215 149.936ZM191.62 149.936C191.444 149.984 191.22 150.008 190.948 150.008C190.852 150.008 190.684 150 190.444 149.984C190.22 149.968 189.98 149.952 189.724 149.936C189.468 149.92 189.228 149.904 189.004 149.888C188.78 149.872 188.628 149.864 188.548 149.864C188.548 149.88 188.372 149.872 188.02 149.84C187.684 149.824 187.164 149.816 186.46 149.816C185.948 149.816 185.644 149.864 185.548 149.96L183.196 150.104C182.62 150.056 182.332 149.808 182.332 149.36C182.332 149.056 182.5 148.768 182.836 148.496C183.044 148.448 183.86 148.4 185.284 148.352C185.364 148.352 185.452 148.352 185.548 148.352C185.66 148.368 185.78 148.376 185.908 148.376C186.548 148.376 187.412 148.352 188.5 148.304L191.5 148.496C191.788 148.64 191.932 148.88 191.932 149.216C191.932 149.488 191.828 149.728 191.62 149.936ZM203.628 149.936C203.452 149.984 203.228 150.008 202.956 150.008C202.86 150.008 202.692 150 202.452 149.984C202.228 149.968 201.988 149.952 201.732 149.936C201.476 149.92 201.236 149.904 201.012 149.888C200.788 149.872 200.636 149.864 200.556 149.864C200.556 149.88 200.38 149.872 200.028 149.84C199.692 149.824 199.172 149.816 198.468 149.816C197.956 149.816 197.652 149.864 197.556 149.96L195.204 150.104C194.628 150.056 194.34 149.808 194.34 149.36C194.34 149.056 194.508 148.768 194.844 148.496C195.052 148.448 195.868 148.4 197.292 148.352C197.372 148.352 197.46 148.352 197.556 148.352C197.668 148.368 197.788 148.376 197.916 148.376C198.556 148.376 199.42 148.352 200.508 148.304L203.508 148.496C203.796 148.64 203.94 148.88 203.94 149.216C203.94 149.488 203.836 149.728 203.628 149.936ZM215.635 149.936C215.459 149.984 215.235 150.008 214.963 150.008C214.867 150.008 214.699 150 214.459 149.984C214.235 149.968 213.995 149.952 213.739 149.936C213.483 149.92 213.243 149.904 213.019 149.888C212.795 149.872 212.643 149.864 212.563 149.864C212.563 149.88 212.387 149.872 212.035 149.84C211.699 149.824 211.179 149.816 210.475 149.816C209.963 149.816 209.659 149.864 209.563 149.96L207.211 150.104C206.635 150.056 206.347 149.808 206.347 149.36C206.347 149.056 206.515 148.768 206.851 148.496C207.059 148.448 207.875 148.4 209.299 148.352C209.379 148.352 209.467 148.352 209.563 148.352C209.675 148.368 209.795 148.376 209.923 148.376C210.563 148.376 211.427 148.352 212.515 148.304L215.515 148.496C215.803 148.64 215.947 148.88 215.947 149.216C215.947 149.488 215.843 149.728 215.635 149.936ZM227.643 149.936C227.467 149.984 227.243 150.008 226.971 150.008C226.875 150.008 226.707 150 226.467 149.984C226.243 149.968 226.003 149.952 225.747 149.936C225.491 149.92 225.251 149.904 225.027 149.888C224.803 149.872 224.651 149.864 224.571 149.864C224.571 149.88 224.395 149.872 224.043 149.84C223.707 149.824 223.187 149.816 222.483 149.816C221.971 149.816 221.667 149.864 221.571 149.96L219.219 150.104C218.643 150.056 218.355 149.808 218.355 149.36C218.355 149.056 218.523 148.768 218.859 148.496C219.067 148.448 219.883 148.4 221.307 148.352C221.387 148.352 221.475 148.352 221.571 148.352C221.683 148.368 221.803 148.376 221.931 148.376C222.571 148.376 223.435 148.352 224.523 148.304L227.523 148.496C227.811 148.64 227.955 148.88 227.955 149.216C227.955 149.488 227.851 149.728 227.643 149.936ZM254.049 149.936C253.873 149.984 253.649 150.008 253.377 150.008C253.281 150.008 253.113 150 252.873 149.984C252.649 149.968 252.409 149.952 252.153 149.936C251.897 149.92 251.657 149.904 251.433 149.888C251.209 149.872 251.057 149.864 250.977 149.864C250.977 149.88 250.801 149.872 250.449 149.84C250.113 149.824 249.593 149.816 248.889 149.816C248.377 149.816 248.073 149.864 247.977 149.96L245.625 150.104C245.049 150.056 244.761 149.808 244.761 149.36C244.761 149.056 244.929 148.768 245.265 148.496C245.473 148.448 246.289 148.4 247.713 148.352C247.793 148.352 247.881 148.352 247.977 148.352C248.089 148.368 248.209 148.376 248.337 148.376C248.977 148.376 249.841 148.352 250.929 148.304L253.929 148.496C254.217 148.64 254.361 148.88 254.361 149.216C254.361 149.488 254.257 149.728 254.049 149.936ZM266.056 149.936C265.88 149.984 265.656 150.008 265.384 150.008C265.288 150.008 265.12 150 264.88 149.984C264.656 149.968 264.416 149.952 264.16 149.936C263.904 149.92 263.664 149.904 263.44 149.888C263.216 149.872 263.064 149.864 262.984 149.864C262.984 149.88 262.808 149.872 262.456 149.84C262.12 149.824 261.6 149.816 260.896 149.816C260.384 149.816 260.08 149.864 259.984 149.96L257.632 150.104C257.056 150.056 256.768 149.808 256.768 149.36C256.768 149.056 256.936 148.768 257.272 148.496C257.48 148.448 258.296 148.4 259.72 148.352C259.8 148.352 259.888 148.352 259.984 148.352C260.096 148.368 260.216 148.376 260.344 148.376C260.984 148.376 261.848 148.352 262.936 148.304L265.936 148.496C266.224 148.64 266.368 148.88 266.368 149.216C266.368 149.488 266.264 149.728 266.056 149.936ZM278.064 149.936C277.888 149.984 277.664 150.008 277.392 150.008C277.296 150.008 277.128 150 276.888 149.984C276.664 149.968 276.424 149.952 276.168 149.936C275.912 149.92 275.672 149.904 275.448 149.888C275.224 149.872 275.072 149.864 274.992 149.864C274.992 149.88 274.816 149.872 274.464 149.84C274.128 149.824 273.608 149.816 272.904 149.816C272.392 149.816 272.088 149.864 271.992 149.96L269.64 150.104C269.064 150.056 268.776 149.808 268.776 149.36C268.776 149.056 268.944 148.768 269.28 148.496C269.488 148.448 270.304 148.4 271.728 148.352C271.808 148.352 271.896 148.352 271.992 148.352C272.104 148.368 272.224 148.376 272.352 148.376C272.992 148.376 273.856 148.352 274.944 148.304L277.944 148.496C278.232 148.64 278.376 148.88 278.376 149.216C278.376 149.488 278.272 149.728 278.064 149.936ZM290.071 149.936C289.895 149.984 289.671 150.008 289.399 150.008C289.303 150.008 289.135 150 288.895 149.984C288.671 149.968 288.431 149.952 288.175 149.936C287.919 149.92 287.679 149.904 287.455 149.888C287.231 149.872 287.079 149.864 286.999 149.864C286.999 149.88 286.823 149.872 286.471 149.84C286.135 149.824 285.615 149.816 284.911 149.816C284.399 149.816 284.095 149.864 283.999 149.96L281.647 150.104C281.071 150.056 280.783 149.808 280.783 149.36C280.783 149.056 280.951 148.768 281.287 148.496C281.495 148.448 282.311 148.4 283.735 148.352C283.815 148.352 283.903 148.352 283.999 148.352C284.111 148.368 284.231 148.376 284.359 148.376C284.999 148.376 285.863 148.352 286.951 148.304L289.951 148.496C290.239 148.64 290.383 148.88 290.383 149.216C290.383 149.488 290.279 149.728 290.071 149.936ZM36.4282 178.344C36.4602 178.44 36.4762 178.512 36.4762 178.56C36.4762 178.752 36.3802 178.92 36.1883 179.064C36.0122 179.208 35.8282 179.28 35.6363 179.28C35.5082 179.28 35.3722 179.224 35.2282 179.112C35.0842 179.016 34.9322 178.888 34.7722 178.728C34.6282 178.584 34.4842 178.424 34.3402 178.248C34.1962 178.088 34.0762 177.936 33.9802 177.792C33.4042 177.056 33.0922 176.352 33.0442 175.68C32.9482 175.6 32.8362 175.44 32.7082 175.2C32.5962 174.96 32.4762 174.688 32.3482 174.384C32.2362 174.08 32.1322 173.768 32.0362 173.448C31.9562 173.112 31.9082 172.824 31.8922 172.584L31.6762 169.152C31.7562 168.608 31.8842 167.944 32.0602 167.16C32.2522 166.36 32.5002 165.576 32.8042 164.808C33.1242 164.024 33.5002 163.32 33.9322 162.696C34.3802 162.056 34.9082 161.624 35.5162 161.4H35.6363C35.8602 161.4 36.0443 161.472 36.1883 161.616C36.3322 161.744 36.4042 161.912 36.4042 162.12C36.4042 162.248 36.3562 162.4 36.2602 162.576C36.1642 162.736 36.0442 162.912 35.9002 163.104C35.7562 163.28 35.5962 163.472 35.4202 163.68C35.2602 163.872 35.1082 164.072 34.9642 164.28C34.3562 165.528 33.9402 166.624 33.7162 167.568C33.5082 168.496 33.4042 169.352 33.4042 170.136C33.4042 170.168 33.4042 170.344 33.4042 170.664C33.4202 170.984 33.4522 171.376 33.5002 171.84C33.5482 172.288 33.6282 172.776 33.7402 173.304C33.8522 173.816 34.0122 174.296 34.2202 174.744C34.3322 174.984 34.4202 175.184 34.4842 175.344C34.5642 175.504 34.6522 175.672 34.7482 175.848C34.8442 176.008 34.9642 176.2 35.1082 176.424C35.2682 176.632 35.4922 176.912 35.7802 177.264C36.1642 177.776 36.3802 178.136 36.4282 178.344ZM51.4866 176.448C51.1826 176.656 50.3746 176.896 49.0626 177.168L48.0546 176.976C47.9266 176.928 47.6946 176.808 47.3586 176.616C47.0386 176.424 46.7026 176.144 46.3506 175.776C46.0146 175.408 45.7106 174.944 45.4386 174.384C45.1826 173.824 45.0546 173.16 45.0546 172.392C45.0546 171.768 45.2306 171.216 45.5826 170.736C45.9346 170.24 46.4706 169.712 47.1906 169.152C47.5746 169.056 47.9506 169.008 48.3186 169.008C49.3906 169.008 50.3746 169.368 51.2706 170.088C52.0386 171.144 52.4226 172.304 52.4226 173.568C52.4226 174.56 52.1106 175.52 51.4866 176.448ZM49.3026 170.592C49.0626 170.48 48.8066 170.424 48.5346 170.424C48.3426 170.424 48.1346 170.472 47.9106 170.568C47.7026 170.664 47.5026 170.808 47.3106 171C47.1346 171.192 46.9906 171.44 46.8786 171.744C46.7666 172.032 46.7106 172.376 46.7106 172.776C46.7106 173.096 46.7506 173.416 46.8306 173.736C46.9266 174.056 47.0626 174.352 47.2386 174.624C47.4306 174.896 47.6706 175.12 47.9586 175.296C48.2466 175.456 48.5906 175.536 48.9906 175.536C49.3586 175.536 49.7746 175.44 50.2386 175.248C50.6386 174.752 50.8386 174.16 50.8386 173.472C50.8386 171.952 50.3266 170.992 49.3026 170.592ZM65.8356 171.744C65.7716 172.176 65.6436 172.784 65.4516 173.568C65.2756 174.336 65.0196 175.128 64.6836 175.944C64.3636 176.744 63.9716 177.48 63.5076 178.152C63.0596 178.824 62.5236 179.272 61.8996 179.496C61.8676 179.496 61.8436 179.496 61.8276 179.496C61.8116 179.512 61.7876 179.52 61.7556 179.52C61.5476 179.52 61.3716 179.448 61.2276 179.304C61.0836 179.16 61.0116 178.984 61.0116 178.776C61.0116 178.632 61.0676 178.464 61.1796 178.272C61.2916 178.096 61.4276 177.904 61.5876 177.696C61.7476 177.488 61.9156 177.272 62.0916 177.048C62.2836 176.824 62.4596 176.6 62.6196 176.376C62.9396 175.72 63.1956 175.152 63.3876 174.672C63.5956 174.176 63.7556 173.72 63.8676 173.304C63.9956 172.872 64.0756 172.456 64.1076 172.056C64.1556 171.656 64.1796 171.224 64.1796 170.76C64.1796 170.728 64.1716 170.552 64.1556 170.232C64.1556 169.912 64.1316 169.528 64.0836 169.08C64.0356 168.616 63.9556 168.128 63.8436 167.616C63.7316 167.088 63.5716 166.6 63.3636 166.152C63.2516 165.912 63.1556 165.712 63.0756 165.552C63.0116 165.392 62.9316 165.232 62.8356 165.072C62.7396 164.896 62.6116 164.704 62.4516 164.496C62.3076 164.272 62.0996 163.992 61.8276 163.656C61.5236 163.288 61.3236 163 61.2276 162.792C61.1476 162.584 61.1076 162.432 61.1076 162.336C61.1076 162.144 61.1876 161.976 61.3476 161.832C61.5236 161.688 61.6996 161.616 61.8756 161.616C62.0036 161.616 62.0996 161.648 62.1636 161.712C63.7476 162.944 64.5876 164.112 64.6836 165.216C64.7796 165.296 64.8836 165.456 64.9956 165.696C65.1236 165.936 65.2436 166.208 65.3556 166.512C65.4836 166.816 65.5876 167.136 65.6676 167.472C65.7476 167.792 65.8036 168.072 65.8356 168.312C65.8196 168.536 65.8116 168.768 65.8116 169.008C65.8116 169.248 65.8116 169.512 65.8116 169.8C65.8116 170.088 65.8116 170.392 65.8116 170.712C65.8116 171.032 65.8196 171.376 65.8356 171.744ZM81.3499 180.936C81.1739 180.984 80.9499 181.008 80.6779 181.008C80.5819 181.008 80.4139 181 80.1739 180.984C79.9499 180.968 79.7099 180.952 79.4539 180.936C79.1979 180.92 78.9579 180.904 78.7339 180.888C78.5099 180.872 78.3579 180.864 78.2779 180.864C78.2779 180.88 78.1019 180.872 77.7499 180.84C77.4139 180.824 76.8939 180.816 76.1899 180.816C75.6779 180.816 75.3739 180.864 75.2779 180.96L72.9259 181.104C72.3499 181.056 72.0619 180.808 72.0619 180.36C72.0619 180.056 72.2299 179.768 72.5659 179.496C72.7739 179.448 73.5899 179.4 75.0139 179.352C75.0939 179.352 75.1819 179.352 75.2779 179.352C75.3899 179.368 75.5099 179.376 75.6379 179.376C76.2779 179.376 77.1419 179.352 78.2299 179.304L81.2299 179.496C81.5179 179.64 81.6619 179.88 81.6619 180.216C81.6619 180.488 81.5579 180.728 81.3499 180.936ZM93.3574 180.936C93.1814 180.984 92.9574 181.008 92.6854 181.008C92.5894 181.008 92.4214 181 92.1814 180.984C91.9574 180.968 91.7174 180.952 91.4614 180.936C91.2054 180.92 90.9654 180.904 90.7414 180.888C90.5174 180.872 90.3654 180.864 90.2854 180.864C90.2854 180.88 90.1094 180.872 89.7574 180.84C89.4214 180.824 88.9014 180.816 88.1974 180.816C87.6854 180.816 87.3814 180.864 87.2854 180.96L84.9334 181.104C84.3574 181.056 84.0694 180.808 84.0694 180.36C84.0694 180.056 84.2374 179.768 84.5734 179.496C84.7814 179.448 85.5974 179.4 87.0214 179.352C87.1014 179.352 87.1894 179.352 87.2854 179.352C87.3974 179.368 87.5174 179.376 87.6454 179.376C88.2854 179.376 89.1494 179.352 90.2374 179.304L93.2374 179.496C93.5254 179.64 93.6694 179.88 93.6694 180.216C93.6694 180.488 93.5654 180.728 93.3574 180.936ZM105.365 180.936C105.189 180.984 104.965 181.008 104.693 181.008C104.597 181.008 104.429 181 104.189 180.984C103.965 180.968 103.725 180.952 103.469 180.936C103.213 180.92 102.973 180.904 102.749 180.888C102.525 180.872 102.373 180.864 102.293 180.864C102.293 180.88 102.117 180.872 101.765 180.84C101.429 180.824 100.909 180.816 100.205 180.816C99.6929 180.816 99.3889 180.864 99.2929 180.96L96.9409 181.104C96.3649 181.056 96.0769 180.808 96.0769 180.36C96.0769 180.056 96.2449 179.768 96.5809 179.496C96.7889 179.448 97.6049 179.4 99.0289 179.352C99.1089 179.352 99.1969 179.352 99.2929 179.352C99.4049 179.368 99.5249 179.376 99.6529 179.376C100.293 179.376 101.157 179.352 102.245 179.304L105.245 179.496C105.533 179.64 105.677 179.88 105.677 180.216C105.677 180.488 105.573 180.728 105.365 180.936ZM116.748 171.744C116.684 172.176 116.556 172.784 116.364 173.568C116.188 174.336 115.932 175.128 115.596 175.944C115.276 176.744 114.884 177.48 114.42 178.152C113.972 178.824 113.436 179.272 112.812 179.496C112.78 179.496 112.756 179.496 112.74 179.496C112.724 179.512 112.7 179.52 112.668 179.52C112.46 179.52 112.284 179.448 112.14 179.304C111.996 179.16 111.924 178.984 111.924 178.776C111.924 178.632 111.98 178.464 112.092 178.272C112.204 178.096 112.34 177.904 112.5 177.696C112.66 177.488 112.828 177.272 113.004 177.048C113.196 176.824 113.372 176.6 113.532 176.376C113.852 175.72 114.108 175.152 114.3 174.672C114.508 174.176 114.668 173.72 114.78 173.304C114.908 172.872 114.988 172.456 115.02 172.056C115.068 171.656 115.092 171.224 115.092 170.76C115.092 170.728 115.084 170.552 115.068 170.232C115.068 169.912 115.044 169.528 114.996 169.08C114.948 168.616 114.868 168.128 114.756 167.616C114.644 167.088 114.484 166.6 114.276 166.152C114.164 165.912 114.068 165.712 113.988 165.552C113.924 165.392 113.844 165.232 113.748 165.072C113.652 164.896 113.524 164.704 113.364 164.496C113.22 164.272 113.012 163.992 112.74 163.656C112.436 163.288 112.236 163 112.14 162.792C112.06 162.584 112.02 162.432 112.02 162.336C112.02 162.144 112.1 161.976 112.26 161.832C112.436 161.688 112.612 161.616 112.788 161.616C112.916 161.616 113.012 161.648 113.076 161.712C114.66 162.944 115.5 164.112 115.596 165.216C115.692 165.296 115.796 165.456 115.908 165.696C116.036 165.936 116.156 166.208 116.268 166.512C116.396 166.816 116.5 167.136 116.58 167.472C116.66 167.792 116.716 168.072 116.748 168.312C116.732 168.536 116.724 168.768 116.724 169.008C116.724 169.248 116.724 169.512 116.724 169.8C116.724 170.088 116.724 170.392 116.724 170.712C116.724 171.032 116.732 171.376 116.748 171.744ZM131.759 170.592C131.759 170.832 131.631 171.016 131.375 171.144C131.119 171.256 130.759 171.448 130.295 171.72C130.055 172.136 129.935 172.84 129.935 173.832C129.935 175.192 129.919 175.888 129.887 175.92C129.871 176.176 129.847 176.4 129.815 176.592C129.783 176.784 129.743 176.96 129.695 177.12L129.407 177.96C129.055 178.328 128.599 178.648 128.039 178.92C127.495 179.192 126.903 179.328 126.263 179.328C126.103 179.328 125.967 179.248 125.855 179.088C125.743 178.944 125.687 178.776 125.687 178.584C125.687 178.44 125.775 178.304 125.951 178.176C126.143 178.048 126.351 177.936 126.575 177.84C126.799 177.76 127.015 177.688 127.223 177.624C127.431 177.576 127.559 177.544 127.607 177.528C127.751 177.464 127.871 177.336 127.967 177.144C128.063 176.968 128.143 176.752 128.207 176.496C128.271 176.24 128.311 175.968 128.327 175.68C128.359 175.392 128.375 175.112 128.375 174.84C128.375 174.632 128.367 174.384 128.351 174.096C128.335 173.792 128.327 173.512 128.327 173.256C128.327 172.6 128.407 172.08 128.567 171.696C128.727 171.312 128.975 170.92 129.311 170.52C129.071 170.328 128.847 169.944 128.639 169.368C128.431 168.792 128.327 167.944 128.327 166.824C128.327 166.632 128.335 166.432 128.351 166.224C128.367 166 128.375 165.776 128.375 165.552C128.375 165.44 128.255 164.84 128.015 163.752C127.519 163.208 126.919 162.936 126.215 162.936C125.863 162.872 125.687 162.64 125.687 162.24C125.687 161.76 125.903 161.52 126.335 161.52C126.751 161.52 127.343 161.696 128.111 162.048C128.687 162.144 129.111 162.424 129.383 162.888C129.655 163.352 129.815 163.864 129.863 164.424L129.959 165.672C129.943 165.752 129.927 165.976 129.911 166.344C129.911 166.712 129.911 167.224 129.911 167.88C129.911 168.008 129.927 168.16 129.959 168.336C130.007 168.512 130.063 168.672 130.127 168.816C130.191 168.992 130.263 169.168 130.343 169.344C130.423 169.456 130.543 169.56 130.703 169.656C130.863 169.736 131.015 169.816 131.159 169.896C131.319 169.976 131.455 170.072 131.567 170.184C131.695 170.296 131.759 170.432 131.759 170.592ZM146.661 180.936C146.485 180.984 146.261 181.008 145.989 181.008C145.893 181.008 145.725 181 145.485 180.984C145.261 180.968 145.021 180.952 144.765 180.936C144.509 180.92 144.269 180.904 144.045 180.888C143.821 180.872 143.669 180.864 143.589 180.864C143.589 180.88 143.413 180.872 143.061 180.84C142.725 180.824 142.205 180.816 141.501 180.816C140.989 180.816 140.685 180.864 140.589 180.96L138.237 181.104C137.661 181.056 137.373 180.808 137.373 180.36C137.373 180.056 137.541 179.768 137.877 179.496C138.085 179.448 138.901 179.4 140.325 179.352C140.405 179.352 140.493 179.352 140.589 179.352C140.701 179.368 140.821 179.376 140.949 179.376C141.589 179.376 142.453 179.352 143.541 179.304L146.541 179.496C146.829 179.64 146.973 179.88 146.973 180.216C146.973 180.488 146.869 180.728 146.661 180.936ZM158.668 180.936C158.492 180.984 158.268 181.008 157.996 181.008C157.9 181.008 157.732 181 157.492 180.984C157.268 180.968 157.028 180.952 156.772 180.936C156.516 180.92 156.276 180.904 156.052 180.888C155.828 180.872 155.676 180.864 155.596 180.864C155.596 180.88 155.42 180.872 155.068 180.84C154.732 180.824 154.212 180.816 153.508 180.816C152.996 180.816 152.692 180.864 152.596 180.96L150.244 181.104C149.668 181.056 149.38 180.808 149.38 180.36C149.38 180.056 149.548 179.768 149.884 179.496C150.092 179.448 150.908 179.4 152.332 179.352C152.412 179.352 152.5 179.352 152.596 179.352C152.708 179.368 152.828 179.376 152.956 179.376C153.596 179.376 154.46 179.352 155.548 179.304L158.548 179.496C158.836 179.64 158.98 179.88 158.98 180.216C158.98 180.488 158.876 180.728 158.668 180.936ZM170.676 180.936C170.5 180.984 170.276 181.008 170.004 181.008C169.908 181.008 169.74 181 169.5 180.984C169.276 180.968 169.036 180.952 168.78 180.936C168.524 180.92 168.284 180.904 168.06 180.888C167.836 180.872 167.684 180.864 167.604 180.864C167.604 180.88 167.428 180.872 167.076 180.84C166.74 180.824 166.22 180.816 165.516 180.816C165.004 180.816 164.7 180.864 164.604 180.96L162.252 181.104C161.676 181.056 161.388 180.808 161.388 180.36C161.388 180.056 161.556 179.768 161.892 179.496C162.1 179.448 162.916 179.4 164.34 179.352C164.42 179.352 164.508 179.352 164.604 179.352C164.716 179.368 164.836 179.376 164.964 179.376C165.604 179.376 166.468 179.352 167.556 179.304L170.556 179.496C170.844 179.64 170.988 179.88 170.988 180.216C170.988 180.488 170.884 180.728 170.676 180.936ZM182.179 170.592C182.179 170.832 182.051 171.016 181.795 171.144C181.539 171.256 181.179 171.448 180.715 171.72C180.475 172.136 180.355 172.84 180.355 173.832C180.355 175.192 180.339 175.888 180.307 175.92C180.291 176.176 180.267 176.4 180.235 176.592C180.203 176.784 180.163 176.96 180.115 177.12L179.827 177.96C179.475 178.328 179.019 178.648 178.459 178.92C177.915 179.192 177.323 179.328 176.683 179.328C176.523 179.328 176.387 179.248 176.275 179.088C176.163 178.944 176.107 178.776 176.107 178.584C176.107 178.44 176.195 178.304 176.371 178.176C176.563 178.048 176.771 177.936 176.995 177.84C177.219 177.76 177.435 177.688 177.643 177.624C177.851 177.576 177.979 177.544 178.027 177.528C178.171 177.464 178.291 177.336 178.387 177.144C178.483 176.968 178.563 176.752 178.627 176.496C178.691 176.24 178.731 175.968 178.747 175.68C178.779 175.392 178.795 175.112 178.795 174.84C178.795 174.632 178.787 174.384 178.771 174.096C178.755 173.792 178.747 173.512 178.747 173.256C178.747 172.6 178.827 172.08 178.987 171.696C179.147 171.312 179.395 170.92 179.731 170.52C179.491 170.328 179.267 169.944 179.059 169.368C178.851 168.792 178.747 167.944 178.747 166.824C178.747 166.632 178.755 166.432 178.771 166.224C178.787 166 178.795 165.776 178.795 165.552C178.795 165.44 178.675 164.84 178.435 163.752C177.939 163.208 177.339 162.936 176.635 162.936C176.283 162.872 176.107 162.64 176.107 162.24C176.107 161.76 176.323 161.52 176.755 161.52C177.171 161.52 177.763 161.696 178.531 162.048C179.107 162.144 179.531 162.424 179.803 162.888C180.075 163.352 180.235 163.864 180.283 164.424L180.379 165.672C180.363 165.752 180.347 165.976 180.331 166.344C180.331 166.712 180.331 167.224 180.331 167.88C180.331 168.008 180.347 168.16 180.379 168.336C180.427 168.512 180.483 168.672 180.547 168.816C180.611 168.992 180.683 169.168 180.763 169.344C180.843 169.456 180.963 169.56 181.123 169.656C181.283 169.736 181.435 169.816 181.579 169.896C181.739 169.976 181.875 170.072 181.987 170.184C182.115 170.296 182.179 170.432 182.179 170.592ZM196.577 170.592C196.577 170.832 196.449 171.016 196.193 171.144C195.937 171.256 195.577 171.448 195.113 171.72C194.873 172.136 194.753 172.84 194.753 173.832C194.753 175.192 194.737 175.888 194.705 175.92C194.689 176.176 194.665 176.4 194.633 176.592C194.601 176.784 194.561 176.96 194.513 177.12L194.225 177.96C193.873 178.328 193.417 178.648 192.857 178.92C192.313 179.192 191.721 179.328 191.081 179.328C190.921 179.328 190.785 179.248 190.673 179.088C190.561 178.944 190.505 178.776 190.505 178.584C190.505 178.44 190.593 178.304 190.769 178.176C190.961 178.048 191.169 177.936 191.393 177.84C191.617 177.76 191.833 177.688 192.041 177.624C192.249 177.576 192.377 177.544 192.425 177.528C192.569 177.464 192.689 177.336 192.785 177.144C192.881 176.968 192.961 176.752 193.025 176.496C193.089 176.24 193.129 175.968 193.145 175.68C193.177 175.392 193.193 175.112 193.193 174.84C193.193 174.632 193.185 174.384 193.169 174.096C193.153 173.792 193.145 173.512 193.145 173.256C193.145 172.6 193.225 172.08 193.385 171.696C193.545 171.312 193.793 170.92 194.129 170.52C193.889 170.328 193.665 169.944 193.457 169.368C193.249 168.792 193.145 167.944 193.145 166.824C193.145 166.632 193.153 166.432 193.169 166.224C193.185 166 193.193 165.776 193.193 165.552C193.193 165.44 193.073 164.84 192.833 163.752C192.337 163.208 191.737 162.936 191.033 162.936C190.681 162.872 190.505 162.64 190.505 162.24C190.505 161.76 190.721 161.52 191.153 161.52C191.569 161.52 192.161 161.696 192.929 162.048C193.505 162.144 193.929 162.424 194.201 162.888C194.473 163.352 194.633 163.864 194.681 164.424L194.777 165.672C194.761 165.752 194.745 165.976 194.729 166.344C194.729 166.712 194.729 167.224 194.729 167.88C194.729 168.008 194.745 168.16 194.777 168.336C194.825 168.512 194.881 168.672 194.945 168.816C195.009 168.992 195.081 169.168 195.161 169.344C195.241 169.456 195.361 169.56 195.521 169.656C195.681 169.736 195.833 169.816 195.977 169.896C196.137 169.976 196.273 170.072 196.385 170.184C196.513 170.296 196.577 170.432 196.577 170.592ZM211.48 180.936C211.304 180.984 211.08 181.008 210.808 181.008C210.712 181.008 210.544 181 210.304 180.984C210.08 180.968 209.84 180.952 209.584 180.936C209.328 180.92 209.088 180.904 208.864 180.888C208.64 180.872 208.488 180.864 208.408 180.864C208.408 180.88 208.232 180.872 207.88 180.84C207.544 180.824 207.024 180.816 206.32 180.816C205.808 180.816 205.504 180.864 205.408 180.96L203.056 181.104C202.48 181.056 202.192 180.808 202.192 180.36C202.192 180.056 202.36 179.768 202.696 179.496C202.904 179.448 203.72 179.4 205.144 179.352C205.224 179.352 205.312 179.352 205.408 179.352C205.52 179.368 205.64 179.376 205.768 179.376C206.408 179.376 207.272 179.352 208.36 179.304L211.36 179.496C211.648 179.64 211.792 179.88 211.792 180.216C211.792 180.488 211.688 180.728 211.48 180.936ZM223.487 180.936C223.311 180.984 223.087 181.008 222.815 181.008C222.719 181.008 222.551 181 222.311 180.984C222.087 180.968 221.847 180.952 221.591 180.936C221.335 180.92 221.095 180.904 220.871 180.888C220.647 180.872 220.495 180.864 220.415 180.864C220.415 180.88 220.239 180.872 219.887 180.84C219.551 180.824 219.031 180.816 218.327 180.816C217.815 180.816 217.511 180.864 217.415 180.96L215.063 181.104C214.487 181.056 214.199 180.808 214.199 180.36C214.199 180.056 214.367 179.768 214.703 179.496C214.911 179.448 215.727 179.4 217.151 179.352C217.231 179.352 217.319 179.352 217.415 179.352C217.527 179.368 217.647 179.376 217.775 179.376C218.415 179.376 219.279 179.352 220.367 179.304L223.367 179.496C223.655 179.64 223.799 179.88 223.799 180.216C223.799 180.488 223.695 180.728 223.487 180.936ZM235.495 180.936C235.319 180.984 235.095 181.008 234.823 181.008C234.727 181.008 234.559 181 234.319 180.984C234.095 180.968 233.855 180.952 233.599 180.936C233.343 180.92 233.103 180.904 232.879 180.888C232.655 180.872 232.503 180.864 232.423 180.864C232.423 180.88 232.247 180.872 231.895 180.84C231.559 180.824 231.039 180.816 230.335 180.816C229.823 180.816 229.519 180.864 229.423 180.96L227.071 181.104C226.495 181.056 226.207 180.808 226.207 180.36C226.207 180.056 226.375 179.768 226.711 179.496C226.919 179.448 227.735 179.4 229.159 179.352C229.239 179.352 229.327 179.352 229.423 179.352C229.535 179.368 229.655 179.376 229.783 179.376C230.423 179.376 231.287 179.352 232.375 179.304L235.375 179.496C235.663 179.64 235.807 179.88 235.807 180.216C235.807 180.488 235.703 180.728 235.495 180.936ZM246.998 170.592C246.998 170.832 246.87 171.016 246.614 171.144C246.358 171.256 245.998 171.448 245.534 171.72C245.294 172.136 245.174 172.84 245.174 173.832C245.174 175.192 245.158 175.888 245.126 175.92C245.11 176.176 245.086 176.4 245.054 176.592C245.022 176.784 244.982 176.96 244.934 177.12L244.646 177.96C244.294 178.328 243.838 178.648 243.278 178.92C242.734 179.192 242.142 179.328 241.502 179.328C241.342 179.328 241.206 179.248 241.094 179.088C240.982 178.944 240.926 178.776 240.926 178.584C240.926 178.44 241.014 178.304 241.19 178.176C241.382 178.048 241.59 177.936 241.814 177.84C242.038 177.76 242.254 177.688 242.462 177.624C242.67 177.576 242.798 177.544 242.846 177.528C242.99 177.464 243.11 177.336 243.206 177.144C243.302 176.968 243.382 176.752 243.446 176.496C243.51 176.24 243.55 175.968 243.566 175.68C243.598 175.392 243.614 175.112 243.614 174.84C243.614 174.632 243.606 174.384 243.59 174.096C243.574 173.792 243.566 173.512 243.566 173.256C243.566 172.6 243.646 172.08 243.806 171.696C243.966 171.312 244.214 170.92 244.55 170.52C244.31 170.328 244.086 169.944 243.878 169.368C243.67 168.792 243.566 167.944 243.566 166.824C243.566 166.632 243.574 166.432 243.59 166.224C243.606 166 243.614 165.776 243.614 165.552C243.614 165.44 243.494 164.84 243.254 163.752C242.758 163.208 242.158 162.936 241.454 162.936C241.102 162.872 240.926 162.64 240.926 162.24C240.926 161.76 241.142 161.52 241.574 161.52C241.99 161.52 242.582 161.696 243.35 162.048C243.926 162.144 244.35 162.424 244.622 162.888C244.894 163.352 245.054 163.864 245.102 164.424L245.198 165.672C245.182 165.752 245.166 165.976 245.15 166.344C245.15 166.712 245.15 167.224 245.15 167.88C245.15 168.008 245.166 168.16 245.198 168.336C245.246 168.512 245.302 168.672 245.366 168.816C245.43 168.992 245.502 169.168 245.582 169.344C245.662 169.456 245.782 169.56 245.942 169.656C246.102 169.736 246.254 169.816 246.398 169.896C246.558 169.976 246.694 170.072 246.806 170.184C246.934 170.296 246.998 170.432 246.998 170.592ZM261.396 170.592C261.396 170.832 261.268 171.016 261.012 171.144C260.756 171.256 260.396 171.448 259.932 171.72C259.692 172.136 259.572 172.84 259.572 173.832C259.572 175.192 259.556 175.888 259.524 175.92C259.508 176.176 259.484 176.4 259.452 176.592C259.42 176.784 259.38 176.96 259.332 177.12L259.044 177.96C258.692 178.328 258.236 178.648 257.676 178.92C257.132 179.192 256.54 179.328 255.9 179.328C255.74 179.328 255.604 179.248 255.492 179.088C255.38 178.944 255.324 178.776 255.324 178.584C255.324 178.44 255.412 178.304 255.588 178.176C255.78 178.048 255.988 177.936 256.212 177.84C256.436 177.76 256.652 177.688 256.86 177.624C257.068 177.576 257.196 177.544 257.244 177.528C257.388 177.464 257.508 177.336 257.604 177.144C257.7 176.968 257.78 176.752 257.844 176.496C257.908 176.24 257.948 175.968 257.964 175.68C257.996 175.392 258.012 175.112 258.012 174.84C258.012 174.632 258.004 174.384 257.988 174.096C257.972 173.792 257.964 173.512 257.964 173.256C257.964 172.6 258.044 172.08 258.204 171.696C258.364 171.312 258.612 170.92 258.948 170.52C258.708 170.328 258.484 169.944 258.276 169.368C258.068 168.792 257.964 167.944 257.964 166.824C257.964 166.632 257.972 166.432 257.988 166.224C258.004 166 258.012 165.776 258.012 165.552C258.012 165.44 257.892 164.84 257.652 163.752C257.156 163.208 256.556 162.936 255.852 162.936C255.5 162.872 255.324 162.64 255.324 162.24C255.324 161.76 255.54 161.52 255.972 161.52C256.388 161.52 256.98 161.696 257.748 162.048C258.324 162.144 258.748 162.424 259.02 162.888C259.292 163.352 259.452 163.864 259.5 164.424L259.596 165.672C259.58 165.752 259.564 165.976 259.548 166.344C259.548 166.712 259.548 167.224 259.548 167.88C259.548 168.008 259.564 168.16 259.596 168.336C259.644 168.512 259.7 168.672 259.764 168.816C259.828 168.992 259.9 169.168 259.98 169.344C260.06 169.456 260.18 169.56 260.34 169.656C260.5 169.736 260.652 169.816 260.796 169.896C260.956 169.976 261.092 170.072 261.204 170.184C261.332 170.296 261.396 170.432 261.396 170.592ZM276.298 180.936C276.122 180.984 275.898 181.008 275.626 181.008C275.53 181.008 275.362 181 275.122 180.984C274.898 180.968 274.658 180.952 274.402 180.936C274.146 180.92 273.906 180.904 273.682 180.888C273.458 180.872 273.306 180.864 273.226 180.864C273.226 180.88 273.05 180.872 272.698 180.84C272.362 180.824 271.842 180.816 271.138 180.816C270.626 180.816 270.322 180.864 270.226 180.96L267.874 181.104C267.298 181.056 267.01 180.808 267.01 180.36C267.01 180.056 267.178 179.768 267.514 179.496C267.722 179.448 268.538 179.4 269.962 179.352C270.042 179.352 270.13 179.352 270.226 179.352C270.338 179.368 270.458 179.376 270.586 179.376C271.226 179.376 272.09 179.352 273.178 179.304L276.178 179.496C276.466 179.64 276.61 179.88 276.61 180.216C276.61 180.488 276.506 180.728 276.298 180.936ZM288.306 180.936C288.13 180.984 287.906 181.008 287.634 181.008C287.538 181.008 287.37 181 287.13 180.984C286.906 180.968 286.666 180.952 286.41 180.936C286.154 180.92 285.914 180.904 285.69 180.888C285.466 180.872 285.314 180.864 285.234 180.864C285.234 180.88 285.058 180.872 284.706 180.84C284.37 180.824 283.85 180.816 283.146 180.816C282.634 180.816 282.33 180.864 282.234 180.96L279.882 181.104C279.306 181.056 279.018 180.808 279.018 180.36C279.018 180.056 279.186 179.768 279.522 179.496C279.73 179.448 280.546 179.4 281.97 179.352C282.05 179.352 282.138 179.352 282.234 179.352C282.346 179.368 282.466 179.376 282.594 179.376C283.234 179.376 284.098 179.352 285.186 179.304L288.186 179.496C288.474 179.64 288.618 179.88 288.618 180.216C288.618 180.488 288.514 180.728 288.306 180.936ZM300.313 180.936C300.137 180.984 299.913 181.008 299.641 181.008C299.545 181.008 299.377 181 299.137 180.984C298.913 180.968 298.673 180.952 298.417 180.936C298.161 180.92 297.921 180.904 297.697 180.888C297.473 180.872 297.321 180.864 297.241 180.864C297.241 180.88 297.065 180.872 296.713 180.84C296.377 180.824 295.857 180.816 295.153 180.816C294.641 180.816 294.337 180.864 294.241 180.96L291.889 181.104C291.313 181.056 291.025 180.808 291.025 180.36C291.025 180.056 291.193 179.768 291.529 179.496C291.737 179.448 292.553 179.4 293.977 179.352C294.057 179.352 294.145 179.352 294.241 179.352C294.353 179.368 294.473 179.376 294.601 179.376C295.241 179.376 296.105 179.352 297.193 179.304L300.193 179.496C300.481 179.64 300.625 179.88 300.625 180.216C300.625 180.488 300.521 180.728 300.313 180.936ZM311.817 170.592C311.817 170.832 311.689 171.016 311.433 171.144C311.177 171.256 310.817 171.448 310.353 171.72C310.113 172.136 309.993 172.84 309.993 173.832C309.993 175.192 309.977 175.888 309.945 175.92C309.929 176.176 309.905 176.4 309.873 176.592C309.841 176.784 309.801 176.96 309.753 177.12L309.465 177.96C309.113 178.328 308.657 178.648 308.097 178.92C307.553 179.192 306.961 179.328 306.321 179.328C306.161 179.328 306.025 179.248 305.913 179.088C305.801 178.944 305.745 178.776 305.745 178.584C305.745 178.44 305.833 178.304 306.009 178.176C306.201 178.048 306.409 177.936 306.633 177.84C306.857 177.76 307.073 177.688 307.281 177.624C307.489 177.576 307.617 177.544 307.665 177.528C307.809 177.464 307.929 177.336 308.025 177.144C308.121 176.968 308.201 176.752 308.265 176.496C308.329 176.24 308.369 175.968 308.385 175.68C308.417 175.392 308.433 175.112 308.433 174.84C308.433 174.632 308.425 174.384 308.409 174.096C308.393 173.792 308.385 173.512 308.385 173.256C308.385 172.6 308.465 172.08 308.625 171.696C308.785 171.312 309.033 170.92 309.369 170.52C309.129 170.328 308.905 169.944 308.697 169.368C308.489 168.792 308.385 167.944 308.385 166.824C308.385 166.632 308.393 166.432 308.409 166.224C308.425 166 308.433 165.776 308.433 165.552C308.433 165.44 308.313 164.84 308.073 163.752C307.577 163.208 306.977 162.936 306.273 162.936C305.921 162.872 305.745 162.64 305.745 162.24C305.745 161.76 305.961 161.52 306.393 161.52C306.809 161.52 307.401 161.696 308.169 162.048C308.745 162.144 309.169 162.424 309.441 162.888C309.713 163.352 309.873 163.864 309.921 164.424L310.017 165.672C310.001 165.752 309.985 165.976 309.969 166.344C309.969 166.712 309.969 167.224 309.969 167.88C309.969 168.008 309.985 168.16 310.017 168.336C310.065 168.512 310.121 168.672 310.185 168.816C310.249 168.992 310.321 169.168 310.401 169.344C310.481 169.456 310.601 169.56 310.761 169.656C310.921 169.736 311.073 169.816 311.217 169.896C311.377 169.976 311.513 170.072 311.625 170.184C311.753 170.296 311.817 170.432 311.817 170.592ZM33.4762 191.992C33.4922 192.152 33.5002 192.296 33.5002 192.424C33.5162 192.552 33.5242 192.656 33.5242 192.736C33.5242 192.96 33.4922 193.272 33.4282 193.672C33.3802 194.072 33.3402 194.528 33.3082 195.04L33.2602 195.472C33.2282 195.744 33.1162 195.92 32.9242 196C32.7482 196.064 32.5962 196.096 32.4682 196.096C32.3402 196.096 32.2522 196.072 32.2042 196.024C32.1562 195.976 32.1162 195.896 32.0842 195.784C32.0682 195.672 32.0442 195.536 32.0122 195.376C31.9802 195.216 31.9322 195.024 31.8682 194.8V194.632C31.8682 194.488 31.8522 194.296 31.8202 194.056C31.8042 193.816 31.7802 193.576 31.7482 193.336C31.7162 193.08 31.6842 192.848 31.6522 192.64C31.6362 192.416 31.6282 192.248 31.6282 192.136C31.6282 191.896 31.7162 191.72 31.8922 191.608C32.0682 191.496 32.2762 191.44 32.5162 191.44C33.0282 191.44 33.3482 191.624 33.4762 191.992ZM52.3734 200.008C52.3094 200.904 52.2374 201.688 52.1574 202.36C52.0774 203.016 51.9574 203.6 51.7974 204.112C51.6534 204.624 51.4534 205.08 51.1974 205.48C50.9574 205.864 50.6454 206.232 50.2614 206.584C49.9734 206.84 49.7014 207.04 49.4454 207.184C49.2054 207.328 48.9654 207.432 48.7254 207.496C48.5014 207.56 48.2854 207.6 48.0774 207.616C47.8694 207.616 47.6694 207.616 47.4774 207.616C46.9814 207.616 46.5494 207.568 46.1814 207.472C45.8134 207.36 45.4774 207.176 45.1734 206.92C44.8694 206.664 44.5894 206.328 44.3334 205.912C44.0774 205.496 43.8134 204.976 43.5414 204.352C43.3814 203.744 43.2534 203.192 43.1574 202.696C43.0774 202.184 43.0134 201.704 42.9654 201.256C42.9174 200.808 42.8854 200.384 42.8694 199.984C42.8694 199.568 42.8694 199.152 42.8694 198.736C42.8694 198.496 42.8614 198.216 42.8454 197.896C42.8294 197.56 42.8374 197.24 42.8694 196.936C42.9174 196.616 43.0054 196.352 43.1334 196.144C43.2774 195.92 43.5014 195.808 43.8054 195.808C44.2694 195.808 44.5734 196.056 44.7174 196.552C44.6854 196.76 44.6614 197.04 44.6454 197.392C44.6294 197.728 44.6214 198.136 44.6214 198.616C44.6214 199.384 44.6294 200.048 44.6454 200.608C44.6774 201.152 44.7014 201.464 44.7174 201.544C44.7334 201.8 44.7734 202.104 44.8374 202.456C44.9174 202.808 45.0054 203.16 45.1014 203.512C45.2134 203.864 45.3174 204.176 45.4134 204.448C45.5094 204.72 45.5894 204.896 45.6534 204.976C45.9574 205.44 46.5814 205.776 47.5254 205.984C48.6294 205.728 49.4054 205.232 49.8534 204.496C50.3014 203.76 50.5254 202.696 50.5254 201.304C50.5254 200.856 50.5414 200.432 50.5734 200.032C50.6054 199.632 50.6374 199.256 50.6694 198.904L50.5974 197.248V196.912C50.5974 196.4 50.6374 196.024 50.7174 195.784C50.8134 195.528 51.0774 195.4 51.5094 195.4C51.7334 195.4 51.9094 195.456 52.0374 195.568C52.1654 195.68 52.2534 195.824 52.3014 196C52.3654 196.16 52.4054 196.344 52.4214 196.552C52.4374 196.76 52.4454 196.968 52.4454 197.176C52.4454 197.272 52.4374 197.416 52.4214 197.608C52.4054 197.8 52.3894 198 52.3734 198.208C52.3734 198.416 52.3654 198.624 52.3494 198.832C52.3334 199.024 52.3254 199.168 52.3254 199.264C52.3254 199.392 52.3254 199.52 52.3254 199.648C52.3414 199.776 52.3574 199.896 52.3734 200.008ZM63.6084 191.992C63.6244 192.152 63.6324 192.296 63.6324 192.424C63.6484 192.552 63.6564 192.656 63.6564 192.736C63.6564 192.96 63.6244 193.272 63.5604 193.672C63.5124 194.072 63.4724 194.528 63.4404 195.04L63.3924 195.472C63.3604 195.744 63.2484 195.92 63.0564 196C62.8804 196.064 62.7284 196.096 62.6004 196.096C62.4724 196.096 62.3844 196.072 62.3364 196.024C62.2884 195.976 62.2484 195.896 62.2164 195.784C62.2004 195.672 62.1764 195.536 62.1444 195.376C62.1124 195.216 62.0644 195.024 62.0004 194.8V194.632C62.0004 194.488 61.9844 194.296 61.9524 194.056C61.9364 193.816 61.9124 193.576 61.8804 193.336C61.8484 193.08 61.8164 192.848 61.7844 192.64C61.7684 192.416 61.7604 192.248 61.7604 192.136C61.7604 191.896 61.8484 191.72 62.0244 191.608C62.2004 191.496 62.4084 191.44 62.6484 191.44C63.1604 191.44 63.4804 191.624 63.6084 191.992ZM82.2176 201.16C82.1856 201.528 82.1056 201.944 81.9776 202.408C81.8496 202.856 81.6976 203.312 81.5216 203.776C81.3616 204.224 81.1776 204.648 80.9696 205.048C80.7616 205.448 80.5616 205.768 80.3696 206.008C79.8736 206.376 79.4816 206.664 79.1936 206.872C78.9056 207.064 78.6576 207.208 78.4496 207.304C78.2416 207.4 78.0416 207.456 77.8496 207.472C77.6576 207.488 77.4176 207.496 77.1296 207.496C76.7136 207.496 76.2736 207.4 75.8096 207.208C75.3456 207 74.9136 206.728 74.5136 206.392C74.1136 206.04 73.7696 205.632 73.4816 205.168C73.1936 204.704 73.0176 204.2 72.9536 203.656C72.6816 202.84 72.5456 202.096 72.5456 201.424C72.5456 200.576 72.7216 199.8 73.0736 199.096C73.4416 198.376 74.0736 197.648 74.9696 196.912C75.3696 196.576 75.7616 196.32 76.1456 196.144C76.5296 195.968 76.8816 195.84 77.2016 195.76C77.5376 195.664 77.8416 195.616 78.1136 195.616C78.3856 195.6 78.6176 195.592 78.8096 195.592C79.4016 195.592 79.8976 195.68 80.2976 195.856C80.7136 196.032 81.0496 196.336 81.3056 196.768C81.5616 197.184 81.7616 197.752 81.9056 198.472C82.0496 199.192 82.1536 200.088 82.2176 201.16ZM80.3216 202.72C80.5616 202.048 80.6816 201.352 80.6816 200.632C80.6816 200.232 80.6336 199.816 80.5376 199.384C80.4416 198.952 80.3056 198.568 80.1296 198.232C79.9696 197.88 79.7616 197.592 79.5056 197.368C79.2656 197.144 79.0016 197.032 78.7136 197.032C76.6656 197.032 75.2416 198.032 74.4416 200.032C74.2816 200.416 74.2016 200.864 74.2016 201.376C74.2016 201.776 74.2656 202.28 74.3936 202.888L74.6336 203.968C75.3856 205.296 76.2176 205.96 77.1296 205.96C77.8016 205.96 78.4096 205.68 78.9536 205.12C79.4976 204.56 79.9536 203.76 80.3216 202.72ZM114.694 201.16C114.662 201.528 114.582 201.944 114.454 202.408C114.326 202.856 114.174 203.312 113.998 203.776C113.838 204.224 113.654 204.648 113.446 205.048C113.238 205.448 113.038 205.768 112.846 206.008C112.35 206.376 111.958 206.664 111.67 206.872C111.382 207.064 111.134 207.208 110.926 207.304C110.718 207.4 110.518 207.456 110.326 207.472C110.134 207.488 109.894 207.496 109.606 207.496C109.19 207.496 108.75 207.4 108.286 207.208C107.822 207 107.39 206.728 106.99 206.392C106.59 206.04 106.246 205.632 105.958 205.168C105.67 204.704 105.494 204.2 105.43 203.656C105.158 202.84 105.022 202.096 105.022 201.424C105.022 200.576 105.198 199.8 105.55 199.096C105.918 198.376 106.55 197.648 107.446 196.912C107.846 196.576 108.238 196.32 108.622 196.144C109.006 195.968 109.358 195.84 109.678 195.76C110.014 195.664 110.318 195.616 110.59 195.616C110.862 195.6 111.094 195.592 111.286 195.592C111.878 195.592 112.374 195.68 112.774 195.856C113.19 196.032 113.526 196.336 113.782 196.768C114.038 197.184 114.238 197.752 114.382 198.472C114.526 199.192 114.63 200.088 114.694 201.16ZM112.798 202.72C113.038 202.048 113.158 201.352 113.158 200.632C113.158 200.232 113.11 199.816 113.014 199.384C112.918 198.952 112.782 198.568 112.606 198.232C112.446 197.88 112.238 197.592 111.982 197.368C111.742 197.144 111.478 197.032 111.19 197.032C109.142 197.032 107.718 198.032 106.918 200.032C106.758 200.416 106.678 200.864 106.678 201.376C106.678 201.776 106.742 202.28 106.87 202.888L107.11 203.968C107.862 205.296 108.694 205.96 109.606 205.96C110.278 205.96 110.886 205.68 111.43 205.12C111.974 204.56 112.43 203.76 112.798 202.72ZM161.568 201.16C161.536 201.528 161.456 201.944 161.328 202.408C161.2 202.856 161.048 203.312 160.872 203.776C160.712 204.224 160.528 204.648 160.32 205.048C160.112 205.448 159.912 205.768 159.72 206.008C159.224 206.376 158.832 206.664 158.544 206.872C158.256 207.064 158.008 207.208 157.8 207.304C157.592 207.4 157.392 207.456 157.2 207.472C157.008 207.488 156.768 207.496 156.48 207.496C156.064 207.496 155.624 207.4 155.16 207.208C154.696 207 154.264 206.728 153.864 206.392C153.464 206.04 153.12 205.632 152.832 205.168C152.544 204.704 152.368 204.2 152.304 203.656C152.032 202.84 151.896 202.096 151.896 201.424C151.896 200.576 152.072 199.8 152.424 199.096C152.792 198.376 153.424 197.648 154.32 196.912C154.72 196.576 155.112 196.32 155.496 196.144C155.88 195.968 156.232 195.84 156.552 195.76C156.888 195.664 157.192 195.616 157.464 195.616C157.736 195.6 157.968 195.592 158.16 195.592C158.752 195.592 159.248 195.68 159.648 195.856C160.064 196.032 160.4 196.336 160.656 196.768C160.912 197.184 161.112 197.752 161.256 198.472C161.4 199.192 161.504 200.088 161.568 201.16ZM159.672 202.72C159.912 202.048 160.032 201.352 160.032 200.632C160.032 200.232 159.984 199.816 159.888 199.384C159.792 198.952 159.656 198.568 159.48 198.232C159.32 197.88 159.112 197.592 158.856 197.368C158.616 197.144 158.352 197.032 158.064 197.032C156.016 197.032 154.592 198.032 153.792 200.032C153.632 200.416 153.552 200.864 153.552 201.376C153.552 201.776 153.616 202.28 153.744 202.888L153.984 203.968C154.736 205.296 155.568 205.96 156.48 205.96C157.152 205.96 157.76 205.68 158.304 205.12C158.848 204.56 159.304 203.76 159.672 202.72ZM194.044 201.16C194.012 201.528 193.932 201.944 193.804 202.408C193.676 202.856 193.524 203.312 193.348 203.776C193.188 204.224 193.004 204.648 192.796 205.048C192.588 205.448 192.388 205.768 192.196 206.008C191.7 206.376 191.308 206.664 191.02 206.872C190.732 207.064 190.484 207.208 190.276 207.304C190.068 207.4 189.868 207.456 189.676 207.472C189.484 207.488 189.244 207.496 188.956 207.496C188.54 207.496 188.1 207.4 187.636 207.208C187.172 207 186.74 206.728 186.34 206.392C185.94 206.04 185.596 205.632 185.308 205.168C185.02 204.704 184.844 204.2 184.78 203.656C184.508 202.84 184.372 202.096 184.372 201.424C184.372 200.576 184.548 199.8 184.9 199.096C185.268 198.376 185.9 197.648 186.796 196.912C187.196 196.576 187.588 196.32 187.972 196.144C188.356 195.968 188.708 195.84 189.028 195.76C189.364 195.664 189.668 195.616 189.94 195.616C190.212 195.6 190.444 195.592 190.636 195.592C191.228 195.592 191.724 195.68 192.124 195.856C192.54 196.032 192.876 196.336 193.132 196.768C193.388 197.184 193.588 197.752 193.732 198.472C193.876 199.192 193.98 200.088 194.044 201.16ZM192.148 202.72C192.388 202.048 192.508 201.352 192.508 200.632C192.508 200.232 192.46 199.816 192.364 199.384C192.268 198.952 192.132 198.568 191.956 198.232C191.796 197.88 191.588 197.592 191.332 197.368C191.092 197.144 190.828 197.032 190.54 197.032C188.492 197.032 187.068 198.032 186.268 200.032C186.108 200.416 186.028 200.864 186.028 201.376C186.028 201.776 186.092 202.28 186.22 202.888L186.46 203.968C187.212 205.296 188.044 205.96 188.956 205.96C189.628 205.96 190.236 205.68 190.78 205.12C191.324 204.56 191.78 203.76 192.148 202.72ZM240.918 201.16C240.886 201.528 240.806 201.944 240.678 202.408C240.55 202.856 240.398 203.312 240.222 203.776C240.062 204.224 239.878 204.648 239.67 205.048C239.462 205.448 239.262 205.768 239.07 206.008C238.574 206.376 238.182 206.664 237.894 206.872C237.606 207.064 237.358 207.208 237.15 207.304C236.942 207.4 236.742 207.456 236.55 207.472C236.358 207.488 236.118 207.496 235.83 207.496C235.414 207.496 234.974 207.4 234.51 207.208C234.046 207 233.614 206.728 233.214 206.392C232.814 206.04 232.47 205.632 232.182 205.168C231.894 204.704 231.718 204.2 231.654 203.656C231.382 202.84 231.246 202.096 231.246 201.424C231.246 200.576 231.422 199.8 231.774 199.096C232.142 198.376 232.774 197.648 233.67 196.912C234.07 196.576 234.462 196.32 234.846 196.144C235.23 195.968 235.582 195.84 235.902 195.76C236.238 195.664 236.542 195.616 236.814 195.616C237.086 195.6 237.318 195.592 237.51 195.592C238.102 195.592 238.598 195.68 238.998 195.856C239.414 196.032 239.75 196.336 240.006 196.768C240.262 197.184 240.462 197.752 240.606 198.472C240.75 199.192 240.854 200.088 240.918 201.16ZM239.022 202.72C239.262 202.048 239.382 201.352 239.382 200.632C239.382 200.232 239.334 199.816 239.238 199.384C239.142 198.952 239.006 198.568 238.83 198.232C238.67 197.88 238.462 197.592 238.206 197.368C237.966 197.144 237.702 197.032 237.414 197.032C235.366 197.032 233.942 198.032 233.142 200.032C232.982 200.416 232.902 200.864 232.902 201.376C232.902 201.776 232.966 202.28 233.094 202.888L233.334 203.968C234.086 205.296 234.918 205.96 235.83 205.96C236.502 205.96 237.11 205.68 237.654 205.12C238.198 204.56 238.654 203.76 239.022 202.72ZM273.394 201.16C273.362 201.528 273.282 201.944 273.154 202.408C273.026 202.856 272.874 203.312 272.698 203.776C272.538 204.224 272.354 204.648 272.146 205.048C271.938 205.448 271.738 205.768 271.546 206.008C271.05 206.376 270.658 206.664 270.37 206.872C270.082 207.064 269.834 207.208 269.626 207.304C269.418 207.4 269.218 207.456 269.026 207.472C268.834 207.488 268.594 207.496 268.306 207.496C267.89 207.496 267.45 207.4 266.986 207.208C266.522 207 266.09 206.728 265.69 206.392C265.29 206.04 264.946 205.632 264.658 205.168C264.37 204.704 264.194 204.2 264.13 203.656C263.858 202.84 263.722 202.096 263.722 201.424C263.722 200.576 263.898 199.8 264.25 199.096C264.618 198.376 265.25 197.648 266.146 196.912C266.546 196.576 266.938 196.32 267.322 196.144C267.706 195.968 268.058 195.84 268.378 195.76C268.714 195.664 269.018 195.616 269.29 195.616C269.562 195.6 269.794 195.592 269.986 195.592C270.578 195.592 271.074 195.68 271.474 195.856C271.89 196.032 272.226 196.336 272.482 196.768C272.738 197.184 272.938 197.752 273.082 198.472C273.226 199.192 273.33 200.088 273.394 201.16ZM271.498 202.72C271.738 202.048 271.858 201.352 271.858 200.632C271.858 200.232 271.81 199.816 271.714 199.384C271.618 198.952 271.482 198.568 271.306 198.232C271.146 197.88 270.938 197.592 270.682 197.368C270.442 197.144 270.178 197.032 269.89 197.032C267.842 197.032 266.418 198.032 265.618 200.032C265.458 200.416 265.378 200.864 265.378 201.376C265.378 201.776 265.442 202.28 265.57 202.888L265.81 203.968C266.562 205.296 267.394 205.96 268.306 205.96C268.978 205.96 269.586 205.68 270.13 205.12C270.674 204.56 271.13 203.76 271.498 202.72ZM320.268 201.16C320.236 201.528 320.156 201.944 320.028 202.408C319.9 202.856 319.748 203.312 319.572 203.776C319.412 204.224 319.228 204.648 319.02 205.048C318.812 205.448 318.612 205.768 318.42 206.008C317.924 206.376 317.532 206.664 317.244 206.872C316.956 207.064 316.708 207.208 316.5 207.304C316.292 207.4 316.092 207.456 315.9 207.472C315.708 207.488 315.468 207.496 315.18 207.496C314.764 207.496 314.324 207.4 313.86 207.208C313.396 207 312.964 206.728 312.564 206.392C312.164 206.04 311.82 205.632 311.532 205.168C311.244 204.704 311.068 204.2 311.004 203.656C310.732 202.84 310.596 202.096 310.596 201.424C310.596 200.576 310.772 199.8 311.124 199.096C311.492 198.376 312.124 197.648 313.02 196.912C313.42 196.576 313.812 196.32 314.196 196.144C314.58 195.968 314.932 195.84 315.252 195.76C315.588 195.664 315.892 195.616 316.164 195.616C316.436 195.6 316.668 195.592 316.86 195.592C317.452 195.592 317.948 195.68 318.348 195.856C318.764 196.032 319.1 196.336 319.356 196.768C319.612 197.184 319.812 197.752 319.956 198.472C320.1 199.192 320.204 200.088 320.268 201.16ZM318.372 202.72C318.612 202.048 318.732 201.352 318.732 200.632C318.732 200.232 318.684 199.816 318.588 199.384C318.492 198.952 318.356 198.568 318.18 198.232C318.02 197.88 317.812 197.592 317.556 197.368C317.316 197.144 317.052 197.032 316.764 197.032C314.716 197.032 313.292 198.032 312.492 200.032C312.332 200.416 312.252 200.864 312.252 201.376C312.252 201.776 312.316 202.28 312.444 202.888L312.684 203.968C313.436 205.296 314.268 205.96 315.18 205.96C315.852 205.96 316.46 205.68 317.004 205.12C317.548 204.56 318.004 203.76 318.372 202.72ZM352.744 201.16C352.712 201.528 352.632 201.944 352.504 202.408C352.376 202.856 352.224 203.312 352.048 203.776C351.888 204.224 351.704 204.648 351.496 205.048C351.288 205.448 351.088 205.768 350.896 206.008C350.4 206.376 350.008 206.664 349.72 206.872C349.432 207.064 349.184 207.208 348.976 207.304C348.768 207.4 348.568 207.456 348.376 207.472C348.184 207.488 347.944 207.496 347.656 207.496C347.24 207.496 346.8 207.4 346.336 207.208C345.872 207 345.44 206.728 345.04 206.392C344.64 206.04 344.296 205.632 344.008 205.168C343.72 204.704 343.544 204.2 343.48 203.656C343.208 202.84 343.072 202.096 343.072 201.424C343.072 200.576 343.248 199.8 343.6 199.096C343.968 198.376 344.6 197.648 345.496 196.912C345.896 196.576 346.288 196.32 346.672 196.144C347.056 195.968 347.408 195.84 347.728 195.76C348.064 195.664 348.368 195.616 348.64 195.616C348.912 195.6 349.144 195.592 349.336 195.592C349.928 195.592 350.424 195.68 350.824 195.856C351.24 196.032 351.576 196.336 351.832 196.768C352.088 197.184 352.288 197.752 352.432 198.472C352.576 199.192 352.68 200.088 352.744 201.16ZM350.848 202.72C351.088 202.048 351.208 201.352 351.208 200.632C351.208 200.232 351.16 199.816 351.064 199.384C350.968 198.952 350.832 198.568 350.656 198.232C350.496 197.88 350.288 197.592 350.032 197.368C349.792 197.144 349.528 197.032 349.24 197.032C347.192 197.032 345.768 198.032 344.968 200.032C344.808 200.416 344.728 200.864 344.728 201.376C344.728 201.776 344.792 202.28 344.92 202.888L345.16 203.968C345.912 205.296 346.744 205.96 347.656 205.96C348.328 205.96 348.936 205.68 349.48 205.12C350.024 204.56 350.48 203.76 350.848 202.72Z" fill="#4266AD"/>
</svg>
